<svg width="6056" height="3079" xmlns="http://www.w3.org/2000/svg" xmlns:xlink="http://www.w3.org/1999/xlink" overflow="hidden"><defs><clipPath id="clip0"><rect x="-74" y="0" width="6056" height="3079"/></clipPath></defs><g clip-path="url(#clip0)" transform="translate(74 0)"><rect x="-73.9999" y="0" width="6056" height="3079" fill="#001236"/><rect x="2594.5" y="1245.5" width="115" height="172" stroke="#FFCC66" stroke-width="4.58333" stroke-miterlimit="8" fill="#6B719D" fill-opacity="0.431373"/><text fill="#FFFFFF" font-family="Gmarket Sans TTF Medium,Gmarket Sans TTF Medium_MSFontService,sans-serif" font-weight="500" font-size="28" transform="matrix(1 0 0 1 2638.71 1304)">포<tspan font-size="28" x="0" y="33">스</tspan><tspan font-size="28" x="0" y="66">텍</tspan></text><rect x="2483.5" y="1147.5" width="227" height="96.9999" stroke="#FFCC66" stroke-width="4.58333" stroke-miterlimit="8" fill="#6B719D" fill-opacity="0.431373"/><text fill="#FFFFFF" font-family="Gmarket Sans TTF Medium,Gmarket Sans TTF Medium_MSFontService,sans-serif" font-weight="500" font-size="28" transform="matrix(1 0 0 1 2517.4 1202)">데이타프로텍</text><rect x="2483.5" y="1244.5" width="114" height="172" stroke="#FFCC66" stroke-width="4.58333" stroke-miterlimit="8" fill="#6B719D" fill-opacity="0.431373"/><rect x="3044.5" y="1951.5" width="329" height="269" stroke="#A9D18E" stroke-width="4.58333" stroke-miterlimit="8" fill="#6B719D" fill-opacity="0.431373"/><text fill="#FFFFFF" font-family="Gmarket Sans TTF Medium,Gmarket Sans TTF Medium_MSFontService,sans-serif" font-weight="500" font-size="28" transform="matrix(1 0 0 1 3168.63 2092)">씨프로</text><rect x="3043.5" y="2353.5" width="329" height="270" stroke="#A9D18E" stroke-width="4.58333" stroke-miterlimit="8" fill="#6B719D" fill-opacity="0.431373"/><text fill="#FFFFFF" font-family="Gmarket Sans TTF Medium,Gmarket Sans TTF Medium_MSFontService,sans-serif" font-weight="500" font-size="28" transform="matrix(1 0 0 1 3167.99 2495)">카티스</text><rect x="3567.5" y="1957.5" width="325" height="270" stroke="#FF8181" stroke-width="4.58333" stroke-miterlimit="8" fill="#6B719D" fill-opacity="0.431373"/><text fill="#FFFFFF" font-family="Gmarket Sans TTF Medium,Gmarket Sans TTF Medium_MSFontService,sans-serif" font-weight="500" font-size="28" transform="matrix(1 0 0 1 3703.24 2099)">세오</text><rect x="3999.5" y="1145.5" width="341" height="270" stroke="#5B9BD5" stroke-width="4.58333" stroke-miterlimit="8" fill="#6B719D" fill-opacity="0.431373"/><text fill="#FFFFFF" font-family="Gmarket Sans TTF Medium,Gmarket Sans TTF Medium_MSFontService,sans-serif" font-weight="500" font-size="28" transform="matrix(1 0 0 1 4117.04 1268)">시큐리티<tspan font-size="28" x="13.1772" y="50">잡페어</tspan></text><rect x="3037.5" y="1539.5" width="336" height="182" stroke="#FFCC66" stroke-width="4.58333" stroke-miterlimit="8" fill="#6B719D" fill-opacity="0.431373"/><text fill="#FFFFFF" font-family="Gmarket Sans TTF Medium,Gmarket Sans TTF Medium_MSFontService,sans-serif" font-weight="500" font-size="28" transform="matrix(1 0 0 1 3118.32 1618)">메트로게이트<tspan font-size="28" x="158.125" y="0">/</tspan><tspan font-size="28" x="33.802" y="50">이레산업</tspan></text><rect x="3562.5" y="1539.5" width="336" height="182" stroke="#5B9BD5" stroke-width="4.58333" stroke-miterlimit="8" fill="#6B719D" fill-opacity="0.431373"/><text fill="#FFFFFF" font-family="Gmarket Sans TTF Medium,Gmarket Sans TTF Medium_MSFontService,sans-serif" font-weight="500" font-size="28" transform="matrix(1 0 0 1 3690.63 1618)">포딕스<tspan font-size="28" x="0" y="50">시스템</tspan></text><rect x="4004.5" y="1539.5" width="336" height="182" stroke="#5B9BD5" stroke-width="4.58333" stroke-miterlimit="8" fill="#6B719D" fill-opacity="0.431373"/><text fill="#FFFFFF" font-family="Gmarket Sans TTF Medium,Gmarket Sans TTF Medium_MSFontService,sans-serif" font-weight="500" font-size="28" transform="matrix(1 0 0 1 4068.96 1593)">원모어<tspan font-size="28" x="86.5105" y="0">시큐리티</tspan><tspan font-size="28" x="191.927" y="0">/</tspan><tspan font-size="28" x="3.73535" y="50">에스엔솔루션즈</tspan><tspan font-size="28" x="188.215" y="50">/</tspan><tspan font-size="28" x="11.1831" y="99">에이아이스페라</tspan></text><rect x="896.5" y="684.5" width="819" height="270" stroke="#C58BFF" stroke-width="4.58333" stroke-miterlimit="8" fill="#6B719D" fill-opacity="0.431373"/><text fill="#FFFFFF" font-family="Gmarket Sans TTF Medium,Gmarket Sans TTF Medium_MSFontService,sans-serif" font-weight="500" font-size="28" transform="matrix(1 0 0 1 1207.81 825)">콘퍼런스<tspan font-size="28" x="112.865" y="0">트랙</tspan><tspan font-size="28" x="173.021" y="0">A</tspan></text><rect x="3521.5" y="684.5" width="819" height="270" stroke="#C58BFF" stroke-width="4.58333" stroke-miterlimit="8" fill="#6B719D" fill-opacity="0.431373"/><text fill="#FFFFFF" font-family="Gmarket Sans TTF Medium,Gmarket Sans TTF Medium_MSFontService,sans-serif" font-weight="500" font-size="28" transform="matrix(1 0 0 1 3833.38 825)">콘퍼런스<tspan font-size="28" x="112.865" y="0">트랙</tspan><tspan font-size="28" x="173.021" y="0">B</tspan></text><rect x="4736.5" y="684.5" width="928" height="270" stroke="#C58BFF" stroke-width="4.58333" stroke-miterlimit="8" fill="#6B719D" fill-opacity="0.431373"/><rect x="4426.5" y="684.5" width="270" height="270" stroke="#C58BFF" stroke-width="4.58333" stroke-miterlimit="8" fill="#6B719D" fill-opacity="0.431373"/><rect x="2472.5" y="684.5" width="329" height="270" stroke="#C58BFF" stroke-width="4.58333" stroke-miterlimit="8" fill="#6B719D" fill-opacity="0.431373"/><text fill="#FFFFFF" font-family="Gmarket Sans TTF Medium,Gmarket Sans TTF Medium_MSFontService,sans-serif" font-weight="500" font-size="28" transform="matrix(1 0 0 1 2597.28 825)">엠스톤</text><rect x="2098.5" y="684.5" width="271" height="270" stroke="#C58BFF" stroke-width="4.58333" stroke-miterlimit="8" fill="#6B719D" fill-opacity="0.431373"/><text fill="#FFFFFF" font-family="Gmarket Sans TTF Medium,Gmarket Sans TTF Medium_MSFontService,sans-serif" font-weight="500" font-size="28" transform="matrix(1 0 0 1 2180.73 825)">씨게이트</text><rect x="1819.5" y="684.5" width="176" height="270" stroke="#C58BFF" stroke-width="4.58333" stroke-miterlimit="8" fill="#6B719D" fill-opacity="0.431373"/><text fill="#FFFFFF" font-family="Gmarket Sans TTF Medium,Gmarket Sans TTF Medium_MSFontService,sans-serif" font-weight="500" font-size="28" transform="matrix(1 0 0 1 1880.39 809)">태정<tspan font-size="28" x="-13.177" y="33">이엔지</tspan></text><rect x="2912.5" y="684.5" width="176" height="270" stroke="#C58BFF" stroke-width="4.58333" stroke-miterlimit="8" fill="#6B719D" fill-opacity="0.431373"/><text fill="#FFFFFF" font-family="Gmarket Sans TTF Medium,Gmarket Sans TTF Medium_MSFontService,sans-serif" font-weight="500" font-size="28" transform="matrix(1 0 0 1 2973.71 825)">새눈</text><rect x="3216.5" y="684.5" width="176" height="270" stroke="#C58BFF" stroke-width="4.58333" stroke-miterlimit="8" fill="#6B719D" fill-opacity="0.431373"/><text fill="#FFFFFF" font-family="Gmarket Sans TTF Medium,Gmarket Sans TTF Medium_MSFontService,sans-serif" font-weight="500" font-size="28" transform="matrix(1 0 0 1 3277.97 792)">지오<tspan font-size="28" x="0" y="33">멕스</tspan><tspan font-size="28" x="-13.1772" y="66">소프트</tspan></text><rect x="1628.5" y="1150.5" width="515" height="270" stroke="#FFCC66" stroke-width="4.58333" stroke-miterlimit="8" fill="#6B719D" fill-opacity="0.431373"/><text fill="#FFFFFF" font-family="Gmarket Sans TTF Medium,Gmarket Sans TTF Medium_MSFontService,sans-serif" font-weight="500" font-size="28" transform="matrix(1 0 0 1 1819.66 1248)">개발도상국<tspan font-size="28" x="-3.71252" y="50">공무원</tspan><tspan font-size="28" x="82.7979" y="50">초청</tspan><tspan font-size="28" x="-30.0667" y="99">해외진출</tspan><tspan font-size="28" x="82.7979" y="99">상담회</tspan></text><rect x="4440.5" y="1145.5" width="188" height="270" stroke="#5B9BD5" stroke-width="4.58333" stroke-miterlimit="8" fill="#6B719D" fill-opacity="0.431373"/><rect x="4728.5" y="1145.5" width="187" height="270" stroke="#5B9BD5" stroke-width="4.58333" stroke-miterlimit="8" fill="#6B719D" fill-opacity="0.431373"/><rect x="5015.5" y="1145.5" width="187" height="270" stroke="#5B9BD5" stroke-width="4.58333" stroke-miterlimit="8" fill="#6B719D" fill-opacity="0.431373"/><rect x="5303.5" y="1145.5" width="187" height="270" stroke="#5B9BD5" stroke-width="4.58333" stroke-miterlimit="8" fill="#6B719D" fill-opacity="0.431373"/><rect x="4440.5" y="1539.5" width="188" height="182" stroke="#5B9BD5" stroke-width="4.58333" stroke-miterlimit="8" fill="#6B719D" fill-opacity="0.431373"/><text fill="#FFFFFF" font-family="Gmarket Sans TTF Medium,Gmarket Sans TTF Medium_MSFontService,sans-serif" font-weight="500" font-size="28" transform="matrix(1 0 0 1 4481.35 1620)">아크로니<tspan font-size="28" x="39.5313" y="33">스</tspan></text><rect x="4722.5" y="1539.5" width="187" height="182" stroke="#5B9BD5" stroke-width="4.58333" stroke-miterlimit="8" fill="#6B719D" fill-opacity="0.431373"/><rect x="5003.5" y="1539.5" width="187" height="182" stroke="#5B9BD5" stroke-width="4.58333" stroke-miterlimit="8" fill="#6B719D" fill-opacity="0.431373"/><rect x="5284.5" y="1539.5" width="187" height="182" stroke="#5B9BD5" stroke-width="4.58333" stroke-miterlimit="8" fill="#6B719D" fill-opacity="0.431373"/><rect x="1067.5" y="1145.5" width="217" height="270" stroke="#FFCC66" stroke-width="4.58333" stroke-miterlimit="8" fill="#6B719D" fill-opacity="0.431373"/><rect x="1338.5" y="1145.5" width="233" height="270" stroke="#FFCC66" stroke-width="4.58333" stroke-miterlimit="8" fill="#6B719D" fill-opacity="0.431373"/><rect x="1067.5" y="1539.5" width="219" height="182" stroke="#FFCC66" stroke-width="4.58333" stroke-miterlimit="8" fill="#6B719D" fill-opacity="0.431373"/><text fill="#FFFFFF" font-family="Gmarket Sans TTF Medium,Gmarket Sans TTF Medium_MSFontService,sans-serif" font-weight="500" font-size="28" transform="matrix(1 0 0 1 1150.21 1604)">로데<tspan font-size="28" x="-26.3541" y="33">슈바르츠</tspan><tspan font-size="28" x="-13.177" y="66">코리아</tspan></text><rect x="1338.5" y="1540.5" width="236" height="183" stroke="#FFCC66" stroke-width="4.58333" stroke-miterlimit="8" fill="#6B719D" fill-opacity="0.431373"/><rect x="1629.5" y="1545.5" width="231" height="182" stroke="#FFCC66" stroke-width="4.58333" stroke-miterlimit="8" fill="#6B719D" fill-opacity="0.431373"/><text fill="#FFFFFF" font-family="Gmarket Sans TTF Medium,Gmarket Sans TTF Medium_MSFontService,sans-serif" font-weight="500" font-size="28" transform="matrix(1 0 0 1 1692.05 1626)">에이엔티<tspan font-size="28" x="13.177" y="33">코리아</tspan></text><rect x="1919.5" y="1545.5" width="226" height="183" stroke="#FFCC66" stroke-width="4.58333" stroke-miterlimit="8" fill="#6B719D" fill-opacity="0.431373"/><text fill="#FFFFFF" font-family="Gmarket Sans TTF Medium,Gmarket Sans TTF Medium_MSFontService,sans-serif" font-weight="500" font-size="28" transform="matrix(1 0 0 1 1992.46 1610)">이지넷<tspan font-size="28" x="13.1771" y="33">유비</tspan><tspan font-size="28" x="0" y="66">쿼터스</tspan></text><rect x="2187.5" y="1546.5" width="241" height="182" stroke="#FFCC66" stroke-width="4.58333" stroke-miterlimit="8" fill="#6B719D" fill-opacity="0.431373"/><text fill="#FFFFFF" font-family="Gmarket Sans TTF Medium,Gmarket Sans TTF Medium_MSFontService,sans-serif" font-weight="500" font-size="25" transform="matrix(1 0 0 1 2283.79 1628)">이후<tspan font-size="25" x="-48.125" y="30">커뮤니케이션</tspan></text><rect x="2483.5" y="1545.5" width="225" height="183" stroke="#FFCC66" stroke-width="4.58333" stroke-miterlimit="8" fill="#6B719D" fill-opacity="0.431373"/><text fill="#FFFFFF" font-family="Gmarket Sans TTF Medium,Gmarket Sans TTF Medium_MSFontService,sans-serif" font-weight="500" font-size="28" transform="matrix(1 0 0 1 2555.57 1643)">앤다스</text><rect x="2767.5" y="1540.5" width="222" height="183" stroke="#FFCC66" stroke-width="4.58333" stroke-miterlimit="8" fill="#6B719D" fill-opacity="0.431373"/><text fill="#FFFFFF" font-family="Gmarket Sans TTF Medium,Gmarket Sans TTF Medium_MSFontService,sans-serif" font-weight="500" font-size="23" transform="matrix(1 0 0 1 2855.95 1621)">미래<tspan font-size="23" x="-10.8855" y="42">시그널</tspan></text><rect x="4004.5" y="1957.5" width="168" height="270" stroke="#FF8181" stroke-width="4.58333" stroke-miterlimit="8" fill="#6B719D" fill-opacity="0.431373"/><text fill="#FFFFFF" font-family="Gmarket Sans TTF Medium,Gmarket Sans TTF Medium_MSFontService,sans-serif" font-weight="500" font-size="28" transform="matrix(1 0 0 1 4072.17 2016)">1:1<tspan font-size="28" x="-10.3125" y="33">비즈</tspan><tspan font-size="28" x="-10.3125" y="66">니스</tspan><tspan font-size="28" x="-10.3125" y="99">매치</tspan><tspan font-size="28" x="-23.4895" y="132">메이킹</tspan><tspan font-size="28" x="2.86475" y="165">룸</tspan></text><rect x="3567.5" y="2329.5" width="397" height="295" stroke="#FF8181" stroke-width="4.58333" stroke-miterlimit="8" fill="#6B719D" fill-opacity="0.431373"/><text fill="#FFFFFF" font-family="Gmarket Sans TTF Medium,Gmarket Sans TTF Medium_MSFontService,sans-serif" font-weight="500" font-size="28" transform="matrix(1 0 0 1 3686.17 2483)">아미노코리아</text><rect x="4060.5" y="2326.5" width="199" height="227" stroke="#FF8181" stroke-width="4.58333" stroke-miterlimit="8" fill="#6B719D" fill-opacity="0.431373"/><text fill="#FFFFFF" font-family="Gmarket Sans TTF Medium,Gmarket Sans TTF Medium_MSFontService,sans-serif" font-weight="500" font-size="28" transform="matrix(1 0 0 1 4102.61 2430)">MYUTR<tspan font-size="28" x="32.0835" y="33">ON</tspan></text><rect x="2203.5" y="1951.5" width="225" height="270" stroke="#A9D18E" stroke-width="4.58333" stroke-miterlimit="8" fill="#6B719D" fill-opacity="0.431373"/><text fill="#FFFFFF" font-family="Gmarket Sans TTF Medium,Gmarket Sans TTF Medium_MSFontService,sans-serif" font-weight="500" font-size="28" transform="matrix(1 0 0 1 2236.61 2093)">엔에스게이트</text><rect x="2763.5" y="2351.5" width="225" height="270" stroke="#A9D18E" stroke-width="4.58333" stroke-miterlimit="8" fill="#6B719D" fill-opacity="0.431373"/><text fill="#FFFFFF" font-family="Gmarket Sans TTF Medium,Gmarket Sans TTF Medium_MSFontService,sans-serif" font-weight="500" font-size="28" transform="matrix(1 0 0 1 2836.25 2492)">노비텍</text><rect x="4448.5" y="2575.5" width="1009" height="75.0002" stroke="#FF8181" stroke-width="4.58333" stroke-miterlimit="8" fill="#6B719D" fill-opacity="0.431373"/><text fill="#FFFFFF" font-family="Gmarket Sans TTF Medium,Gmarket Sans TTF Medium_MSFontService,sans-serif" font-weight="500" font-size="28" transform="matrix(1 0 0 1 4895.8 2619)">휴식<tspan font-size="28" x="60.1563" y="0">공간</tspan></text><rect x="5564.5" y="1145.5" width="98" height="1505" stroke="#C58BFF" stroke-width="4.58333" stroke-miterlimit="8" fill="#6B719D" fill-opacity="0.431373"/><rect x="897.5" y="977.5" width="97.9999" height="1644" stroke="#C58BFF" stroke-width="4.58333" stroke-miterlimit="8" fill="#6B719D" fill-opacity="0.431373"/><rect x="3730" y="1145" width="166" height="270" stroke="#5B9BD5" stroke-width="2.29167" stroke-miterlimit="8" fill="#6B719D" fill-opacity="0.431373"/><rect x="3200.5" y="1145.5" width="166" height="270" stroke="#FFCC66" stroke-width="4.58333" stroke-miterlimit="8" fill="#6B719D" fill-opacity="0.431373"/><text fill="#FFFFFF" font-family="Gmarket Sans TTF Medium,Gmarket Sans TTF Medium_MSFontService,sans-serif" font-weight="500" font-size="28" transform="matrix(1 0 0 1 3269.79 1237)">웹<tspan font-size="28" x="0" y="33">게</tspan><tspan font-size="28" x="0" y="66">이</tspan><tspan font-size="28" x="0" y="99">트</tspan></text><rect x="3038.5" y="1145.5" width="166" height="270" stroke="#FFCC66" stroke-width="4.58333" stroke-miterlimit="8" fill="#6B719D" fill-opacity="0.431373"/><rect x="3562" y="1145" width="167" height="270" stroke="#00B0F0" stroke-width="13.75" stroke-miterlimit="8" fill="#6B719D" fill-opacity="0.431373"/><text fill="#FFFFFF" font-family="Nanum Brush Script,Nanum Brush Script_MSFontService,sans-serif" font-weight="700" font-size="110" transform="matrix(1 0 0 1 3608.14 1279)">가<tspan font-size="110" x="5.4314" y="93">시</tspan></text><rect x="4174.5" y="1957.5" width="168" height="270" stroke="#FF8181" stroke-width="4.58333" stroke-miterlimit="8" fill="#6B719D" fill-opacity="0.431373"/><text fill="#FFFFFF" font-family="Gmarket Sans TTF Medium,Gmarket Sans TTF Medium_MSFontService,sans-serif" font-weight="500" font-size="28" transform="matrix(1 0 0 1 4218.39 2066)">바이어<tspan font-size="28" x="0" y="33">온라인</tspan><tspan font-size="28" x="0" y="66">미팅룸</tspan></text><rect x="2880.5" y="1241.5" width="114" height="172" stroke="#FFCC66" stroke-width="4.58333" stroke-miterlimit="8" fill="#6B719D" fill-opacity="0.431373"/><rect x="2767.5" y="1145.5" width="225" height="98" stroke="#FFCC66" stroke-width="4.58333" stroke-miterlimit="8" fill="#6B719D" fill-opacity="0.431373"/><text fill="#FFFFFF" font-family="Gmarket Sans TTF Medium,Gmarket Sans TTF Medium_MSFontService,sans-serif" font-weight="500" font-size="28" transform="matrix(1 0 0 1 2839.96 1200)">뉴테크</text><rect x="2767.5" y="1243.5" width="114" height="172" stroke="#FFCC66" stroke-width="4.58333" stroke-miterlimit="8" fill="#6B719D" fill-opacity="0.431373"/><rect x="4125.5" y="545.5" width="491" height="90.0001" stroke="#FFFFFF" stroke-width="4.58333" stroke-miterlimit="8" fill="#6B719D" fill-opacity="0.431373"/><text fill="#FFFFFF" font-family="Gmarket Sans TTF Medium,Gmarket Sans TTF Medium_MSFontService,sans-serif" font-weight="500" font-size="32" transform="matrix(1 0 0 1 4324.13 598)">하역장</text><rect x="2196.5" y="531.5" width="491" height="91.0001" stroke="#FFFFFF" stroke-width="4.58333" stroke-miterlimit="8" fill="#6B719D" fill-opacity="0.431373"/><text fill="#FFFFFF" font-family="Gmarket Sans TTF Medium,Gmarket Sans TTF Medium_MSFontService,sans-serif" font-weight="500" font-size="32" transform="matrix(1 0 0 1 2395.48 584)">하역장</text><rect x="896.5" y="545.5" width="292" height="90.0001" stroke="#FFFFFF" stroke-width="4.58333" stroke-miterlimit="8" fill="#6B719D" fill-opacity="0.431373"/><text fill="#FFFFFF" font-family="Gmarket Sans TTF Medium,Gmarket Sans TTF Medium_MSFontService,sans-serif" font-weight="500" font-size="32" transform="matrix(1 0 0 1 995.349 598)">하역장</text><rect x="2305.5" y="1247.5" width="122" height="172" stroke="#FFCC66" stroke-width="4.58333" stroke-miterlimit="8" fill="#6B719D" fill-opacity="0.431373"/><rect x="2185.5" y="1149.5" width="243" height="98" stroke="#FFCC66" stroke-width="4.58333" stroke-miterlimit="8" fill="#6B719D" fill-opacity="0.431373"/><text fill="#FFFFFF" font-family="Gmarket Sans TTF Medium,Gmarket Sans TTF Medium_MSFontService,sans-serif" font-weight="500" font-size="23" transform="matrix(1 0 0 1 2220.06 1203)">Network<tspan font-size="23" x="114.01" y="0">Opix</tspan></text><rect x="2185.5" y="1247.5" width="123" height="172" stroke="#FFCC66" stroke-width="4.58333" stroke-miterlimit="8" fill="#6B719D" fill-opacity="0.431373"/><rect x="4446.5" y="1957.5" width="190" height="92.9999" stroke="#FF8181" stroke-width="4.58333" stroke-miterlimit="8" fill="#6B719D" fill-opacity="0.431373"/><text fill="#FFFFFF" font-family="Gmarket Sans TTF Medium,Gmarket Sans TTF Medium_MSFontService,sans-serif" font-weight="500" font-size="28" transform="matrix(1 0 0 1 4514.85 1994)">스페<tspan font-size="28" x="0" y="33">로우</tspan></text><rect x="4446.5" y="2053.5" width="190" height="92.9998" stroke="#FF8181" stroke-width="4.58333" stroke-miterlimit="8" fill="#6B719D" fill-opacity="0.431373"/><text fill="#FFFFFF" font-family="Gmarket Sans TTF Medium,Gmarket Sans TTF Medium_MSFontService,sans-serif" font-weight="500" font-size="28" transform="matrix(1 0 0 1 4516 2089)">HM<tspan font-size="28" x="-14.3232" y="33">컴퍼니</tspan></text><rect x="4720.5" y="1954.5" width="190" height="92.9998" stroke="#FF8181" stroke-width="4.58333" stroke-miterlimit="8" fill="#6B719D" fill-opacity="0.431373"/><text fill="#FFFFFF" font-family="Gmarket Sans TTF Medium,Gmarket Sans TTF Medium_MSFontService,sans-serif" font-weight="500" font-size="28" transform="matrix(1 0 0 1 4775.7 1991)">소프트<tspan font-size="28" x="0" y="33">플로우</tspan></text><rect x="4720.5" y="2049.5" width="190" height="94.0002" stroke="#FF8181" stroke-width="4.58333" stroke-miterlimit="8" fill="#6B719D" fill-opacity="0.431373"/><text fill="#FFFFFF" font-family="Gmarket Sans TTF Medium,Gmarket Sans TTF Medium_MSFontService,sans-serif" font-weight="500" font-size="28" transform="matrix(1 0 0 1 4788.88 2086)">펜타<tspan font-size="28" x="-13.1772" y="33">시큐리</tspan></text><rect x="5005.5" y="1954.5" width="190" height="92.9998" stroke="#FF8181" stroke-width="4.58333" stroke-miterlimit="8" fill="#6B719D" fill-opacity="0.431373"/><text fill="#FFFFFF" font-family="Gmarket Sans TTF Medium,Gmarket Sans TTF Medium_MSFontService,sans-serif" font-weight="500" font-size="28" transform="matrix(1 0 0 1 5060.29 2007)">테이텀</text><rect x="5005.5" y="2049.5" width="190" height="94.0002" stroke="#FF8181" stroke-width="4.58333" stroke-miterlimit="8" fill="#6B719D" fill-opacity="0.431373"/><text fill="#FFFFFF" font-family="Gmarket Sans TTF Medium,Gmarket Sans TTF Medium_MSFontService,sans-serif" font-weight="500" font-size="28" transform="matrix(1 0 0 1 5047.12 2086)">에스지에<tspan font-size="28" x="39.5313" y="33">이</tspan></text><rect x="5278.5" y="1954.5" width="190" height="92.9998" stroke="#FF8181" stroke-width="4.58333" stroke-miterlimit="8" fill="#6B719D" fill-opacity="0.431373"/><text fill="#FFFFFF" font-family="Gmarket Sans TTF Medium,Gmarket Sans TTF Medium_MSFontService,sans-serif" font-weight="500" font-size="28" transform="matrix(1 0 0 1 5320.06 1991)">스마일로<tspan font-size="28" x="39.5313" y="33">그</tspan></text><rect x="5278.5" y="2049.5" width="190" height="94.0002" stroke="#FF8181" stroke-width="4.58333" stroke-miterlimit="8" fill="#6B719D" fill-opacity="0.431373"/><text fill="#FFFFFF" font-family="Gmarket Sans TTF Medium,Gmarket Sans TTF Medium_MSFontService,sans-serif" font-weight="500" font-size="28" transform="matrix(1 0 0 1 5333.23 2103)">이스톰</text><rect x="4449.5" y="2287.5" width="95" height="182" stroke="#FF8181" stroke-width="4.58333" stroke-miterlimit="8" fill="#6B719D" fill-opacity="0.431373"/><text fill="#FFFFFF" font-family="Gmarket Sans TTF Medium,Gmarket Sans TTF Medium_MSFontService,sans-serif" font-weight="500" font-size="28" transform="matrix(1 0 0 1 4483.22 2351)">옥<tspan font-size="28" x="0" y="33">타</tspan><tspan font-size="28" x="0" y="66">코</tspan></text><rect x="4545.5" y="2287.5" width="95" height="182" stroke="#FF8181" stroke-width="4.58333" stroke-miterlimit="8" fill="#6B719D" fill-opacity="0.431373"/><text fill="#FFFFFF" font-family="Gmarket Sans TTF Medium,Gmarket Sans TTF Medium_MSFontService,sans-serif" font-weight="500" font-size="28" transform="matrix(1 0 0 1 4579.49 2335)">마<tspan font-size="28" x="0" y="33">이</tspan><tspan font-size="28" x="0" y="66">더</tspan><tspan font-size="28" x="0" y="99">스</tspan></text><rect x="4725.5" y="2285.5" width="95" height="182" stroke="#FF8181" stroke-width="4.58333" stroke-miterlimit="8" fill="#6B719D" fill-opacity="0.431373"/><text fill="#FFFFFF" font-family="Gmarket Sans TTF Medium,Gmarket Sans TTF Medium_MSFontService,sans-serif" font-weight="500" font-size="28" transform="matrix(1 0 0 1 4759.3 2333)">에<tspan font-size="28" x="0" y="33">어</tspan><tspan font-size="28" x="0" y="66">큐</tspan><tspan font-size="28" x="0" y="99">브</tspan></text><rect x="4821.5" y="2285.5" width="95" height="182" stroke="#FF8181" stroke-width="4.58333" stroke-miterlimit="8" fill="#6B719D" fill-opacity="0.431373"/><text fill="#FFFFFF" font-family="Gmarket Sans TTF Medium,Gmarket Sans TTF Medium_MSFontService,sans-serif" font-weight="500" font-size="28" transform="matrix(1 0 0 1 4855.58 2333)">아<tspan font-size="28" x="0" y="33">스</tspan><tspan font-size="28" x="0" y="66">트</tspan><tspan font-size="28" x="0" y="99">론</tspan></text><rect x="5001.5" y="2284.5" width="95" height="182" stroke="#FF8181" stroke-width="4.58333" stroke-miterlimit="8" fill="#6B719D" fill-opacity="0.431373"/><text fill="#FFFFFF" font-family="Gmarket Sans TTF Medium,Gmarket Sans TTF Medium_MSFontService,sans-serif" font-weight="500" font-size="28" transform="matrix(1 0 0 1 5035.08 2332)">비<tspan font-size="28" x="0" y="33">전</tspan><tspan font-size="28" x="0" y="66">테</tspan><tspan font-size="28" x="0" y="99">크</tspan></text><rect x="5097.5" y="2284.5" width="95" height="182" stroke="#FF8181" stroke-width="4.58333" stroke-miterlimit="8" fill="#6B719D" fill-opacity="0.431373"/><text fill="#FFFFFF" font-family="Gmarket Sans TTF Medium,Gmarket Sans TTF Medium_MSFontService,sans-serif" font-weight="500" font-size="28" transform="matrix(1 0 0 1 5131.35 2332)">이<tspan font-size="28" x="0" y="33">노</tspan><tspan font-size="28" x="0" y="66">티</tspan><tspan font-size="28" x="0" y="99">움</tspan></text><rect x="5282.5" y="2280.5" width="95" height="182" stroke="#FF8181" stroke-width="4.58333" stroke-miterlimit="8" fill="#6B719D" fill-opacity="0.431373"/><text fill="#FFFFFF" font-family="Gmarket Sans TTF Medium,Gmarket Sans TTF Medium_MSFontService,sans-serif" font-weight="500" font-size="28" transform="matrix(1 0 0 1 5316.39 2328)">시<tspan font-size="28" x="0" y="33">큐</tspan><tspan font-size="28" x="0" y="66">위</tspan><tspan font-size="28" x="0" y="99">즈</tspan></text><rect x="5379.5" y="2280.5" width="94" height="182" stroke="#FF8181" stroke-width="4.58333" stroke-miterlimit="8" fill="#6B719D" fill-opacity="0.431373"/><text fill="#FFFFFF" font-family="Gmarket Sans TTF Medium,Gmarket Sans TTF Medium_MSFontService,sans-serif" font-weight="500" font-size="28" transform="matrix(1 0 0 1 5412.66 2328)">에<tspan font-size="28" x="0" y="33">스</tspan><tspan font-size="28" x="0" y="66">케</tspan><tspan font-size="28" x="0" y="99">이</tspan></text><rect x="4251.5" y="2326.5" width="103" height="228" stroke="#FF8181" stroke-width="4.58333" stroke-miterlimit="8" fill="#6B719D" fill-opacity="0.431373"/><text fill="#FFFFFF" font-family="Gmarket Sans TTF Medium,Gmarket Sans TTF Medium_MSFontService,sans-serif" font-weight="500" font-size="28" transform="matrix(1 0 0 1 4289.34 2364)">미<tspan font-size="28" x="0" y="33">디</tspan><tspan font-size="28" x="0" y="66">어</tspan><tspan font-size="28" x="0" y="99">스</tspan><tspan font-size="28" x="0" y="132">탠</tspan><tspan font-size="28" x="0" y="165">드</tspan></text><rect x="4060.5" y="2553.5" width="295" height="67" stroke="#FF8181" stroke-width="4.58333" stroke-miterlimit="8" fill="#6B719D" fill-opacity="0.431373"/><text fill="#FFFFFF" font-family="Gmarket Sans TTF Medium,Gmarket Sans TTF Medium_MSFontService,sans-serif" font-weight="500" font-size="28" transform="matrix(1 0 0 1 4168.13 2593)">경찰청</text><rect x="2485.5" y="2351.5" width="225" height="75" stroke="#A9D18E" stroke-width="4.58333" stroke-miterlimit="8" fill="#6B719D" fill-opacity="0.431373"/><text fill="#FFFFFF" font-family="Gmarket Sans TTF Medium,Gmarket Sans TTF Medium_MSFontService,sans-serif" font-weight="500" font-size="23" transform="matrix(1 0 0 1 2554.23 2394)">선세웨이</text><rect x="2485.5" y="2426.5" width="226" height="192" stroke="#A9D18E" stroke-width="4.58333" stroke-miterlimit="8" fill="#6B719D" fill-opacity="0.431373"/><text fill="#FFFFFF" font-family="Gmarket Sans TTF Medium,Gmarket Sans TTF Medium_MSFontService,sans-serif" font-weight="500" font-size="23" transform="matrix(1 0 0 1 2548.27 2513)">다원테크<tspan font-size="23" x="87.0833" y="0">/</tspan><tspan font-size="23" x="6.0271" y="28">세건통신</tspan></text><rect x="2204.5" y="2351.5" width="225" height="69.9998" stroke="#A9D18E" stroke-width="4.58333" stroke-miterlimit="8" fill="#6B719D" fill-opacity="0.431373"/><text fill="#FFFFFF" font-family="Gmarket Sans TTF Medium,Gmarket Sans TTF Medium_MSFontService,sans-serif" font-weight="500" font-size="23" transform="matrix(1 0 0 1 2273.4 2391)">티피링크</text><rect x="2205.5" y="2420.5" width="225" height="192" stroke="#A9D18E" stroke-width="4.58333" stroke-miterlimit="8" fill="#6B719D" fill-opacity="0.431373"/><text fill="#FFFFFF" font-family="Gmarket Sans TTF Medium,Gmarket Sans TTF Medium_MSFontService,sans-serif" font-weight="500" font-size="23" transform="matrix(1 0 0 1 2273.61 2507)">마이스톤<tspan font-size="23" x="0" y="28">시스템즈</tspan></text><rect x="1920.5" y="2351.5" width="225" height="69.9998" stroke="#A9D18E" stroke-width="4.58333" stroke-miterlimit="8" fill="#6B719D" fill-opacity="0.431373"/><text fill="#FFFFFF" font-family="Gmarket Sans TTF Medium,Gmarket Sans TTF Medium_MSFontService,sans-serif" font-weight="500" font-size="23" transform="matrix(1 0 0 1 1988.66 2377)">씨큐리티<tspan font-size="23" x="0" y="28">에비던스</tspan></text><rect x="1919.5" y="2420.5" width="226" height="192" stroke="#A9D18E" stroke-width="4.58333" stroke-miterlimit="8" fill="#6B719D" fill-opacity="0.431373"/><text fill="#FFFFFF" font-family="Gmarket Sans TTF Medium,Gmarket Sans TTF Medium_MSFontService,sans-serif" font-weight="500" font-size="23" transform="matrix(1 0 0 1 1988.48 2521)">티제이원</text><rect x="1637.5" y="2351.5" width="220" height="69.9998" stroke="#A9D18E" stroke-width="4.58333" stroke-miterlimit="8" fill="#6B719D" fill-opacity="0.431373"/><rect x="1636.5" y="2420.5" width="220" height="192" stroke="#A9D18E" stroke-width="4.58333" stroke-miterlimit="8" fill="#6B719D" fill-opacity="0.431373"/><rect x="1338.5" y="2351.5" width="231" height="68.9998" stroke="#A9D18E" stroke-width="4.58333" stroke-miterlimit="8" fill="#6B719D" fill-opacity="0.431373"/><text fill="#FFFFFF" font-family="Gmarket Sans TTF Medium,Gmarket Sans TTF Medium_MSFontService,sans-serif" font-weight="500" font-size="23" transform="matrix(1 0 0 1 1388.29 2391)">에스에스티랩</text><rect x="1338.5" y="2420.5" width="231" height="192" stroke="#A9D18E" stroke-width="4.58333" stroke-miterlimit="8" fill="#6B719D" fill-opacity="0.431373"/><text fill="#FFFFFF" font-family="Gmarket Sans TTF Medium,Gmarket Sans TTF Medium_MSFontService,sans-serif" font-weight="500" font-size="23" transform="matrix(1 0 0 1 1404.16 2507)">딥노이드<tspan font-size="23" x="87.0834" y="0">/</tspan><tspan font-size="23" x="-15.7667" y="28">한국공항공사</tspan></text><rect x="1060.5" y="2351.5" width="226" height="68.9998" stroke="#A9D18E" stroke-width="4.58333" stroke-miterlimit="8" fill="#6B719D" fill-opacity="0.431373"/><text fill="#FFFFFF" font-family="Gmarket Sans TTF Medium,Gmarket Sans TTF Medium_MSFontService,sans-serif" font-weight="500" font-size="23" transform="matrix(1 0 0 1 1140.47 2391)">나다텔</text><rect x="1060.5" y="2420.5" width="226" height="192" stroke="#A9D18E" stroke-width="4.58333" stroke-miterlimit="8" fill="#6B719D" fill-opacity="0.431373"/><text fill="#FFFFFF" font-family="Gmarket Sans TTF Medium,Gmarket Sans TTF Medium_MSFontService,sans-serif" font-weight="500" font-size="23" transform="matrix(1 0 0 1 1129.69 2521)">오즈레일</text><rect x="1923.5" y="1951.5" width="223" height="72.0002" stroke="#A9D18E" stroke-width="4.58333" stroke-miterlimit="8" fill="#6B719D" fill-opacity="0.431373"/><text fill="#FFFFFF" font-family="Gmarket Sans TTF Medium,Gmarket Sans TTF Medium_MSFontService,sans-serif" font-weight="500" font-size="23" transform="matrix(1 0 0 1 1968.95 1992)">경인씨엔에스</text><rect x="1920.5" y="2022.5" width="226" height="199" stroke="#A9D18E" stroke-width="4.58333" stroke-miterlimit="8" fill="#6B719D" fill-opacity="0.431373"/><text fill="#FFFFFF" font-family="Gmarket Sans TTF Medium,Gmarket Sans TTF Medium_MSFontService,sans-serif" font-weight="500" font-size="23" transform="matrix(1 0 0 1 2000.38 2113)">베스트<tspan font-size="23" x="0" y="28">디지털</tspan></text><rect x="2483.5" y="1951.5" width="225" height="72.0002" stroke="#A9D18E" stroke-width="4.58333" stroke-miterlimit="8" fill="#6B719D" fill-opacity="0.431373"/><text fill="#FFFFFF" font-family="Gmarket Sans TTF Medium,Gmarket Sans TTF Medium_MSFontService,sans-serif" font-weight="500" font-size="23" transform="matrix(1 0 0 1 2562.44 1992)">비젼인</text><rect x="2483.5" y="2022.5" width="112" height="199" stroke="#A9D18E" stroke-width="4.58333" stroke-miterlimit="8" fill="#6B719D" fill-opacity="0.431373"/><text fill="#FFFFFF" font-family="Gmarket Sans TTF Medium,Gmarket Sans TTF Medium_MSFontService,sans-serif" font-weight="500" font-size="23" transform="matrix(1 0 0 1 2517 2099)">한국<tspan font-size="23" x="0" y="28">태양</tspan><tspan font-size="23" x="0" y="55">유전</tspan></text><rect x="2595.5" y="2023.5" width="113" height="198" stroke="#A9D18E" stroke-width="4.58333" stroke-miterlimit="8" fill="#6B719D" fill-opacity="0.431373"/><text fill="#FFFFFF" font-family="Gmarket Sans TTF Medium,Gmarket Sans TTF Medium_MSFontService,sans-serif" font-weight="500" font-size="23" transform="matrix(1 0 0 1 2629.51 2113)">신우<tspan font-size="23" x="0" y="28">테크</tspan></text><rect x="2895.5" y="2022.5" width="94.0002" height="198" stroke="#A9D18E" stroke-width="4.58333" stroke-miterlimit="8" fill="#6B719D" fill-opacity="0.431373"/><text fill="#FFFFFF" font-family="Gmarket Sans TTF Medium,Gmarket Sans TTF Medium_MSFontService,sans-serif" font-weight="500" font-size="23" transform="matrix(1 0 0 1 2931.16 2057)">실<tspan font-size="23" x="0" y="28">리</tspan><tspan font-size="23" x="0" y="55">콘</tspan><tspan font-size="23" x="0" y="83">브</tspan><tspan font-size="23" x="0" y="110">릿</tspan><tspan font-size="23" x="0" y="138">지</tspan></text><rect x="2764.5" y="2022.5" width="128" height="200" stroke="#A9D18E" stroke-width="4.58333" stroke-miterlimit="8" fill="#6B719D" fill-opacity="0.431373"/><text fill="#FFFFFF" font-family="Gmarket Sans TTF Medium,Gmarket Sans TTF Medium_MSFontService,sans-serif" font-weight="500" font-size="23" transform="matrix(1 0 0 1 2806.4 2086)">사이<tspan font-size="23" x="0" y="28">테크</tspan><tspan font-size="23" x="0" y="55">놀로</tspan><tspan font-size="23" x="0" y="83">지스</tspan></text><rect x="2764.5" y="1952.5" width="225" height="72.9999" stroke="#A9D18E" stroke-width="4.58333" stroke-miterlimit="8" fill="#6B719D" fill-opacity="0.431373"/><text fill="#FFFFFF" font-family="Gmarket Sans TTF Medium,Gmarket Sans TTF Medium_MSFontService,sans-serif" font-weight="500" font-size="23" transform="matrix(1 0 0 1 2811.17 1994)">삼마아이씨티</text><rect x="1632.5" y="1951.5" width="225" height="72.0002" stroke="#A9D18E" stroke-width="4.58333" stroke-miterlimit="8" fill="#6B719D" fill-opacity="0.431373"/><text fill="#FFFFFF" font-family="Gmarket Sans TTF Medium,Gmarket Sans TTF Medium_MSFontService,sans-serif" font-weight="500" font-size="23" transform="matrix(1 0 0 1 1722.75 1978)">이룸<tspan font-size="23" x="-32.6563" y="28">에스엔에스</tspan></text><rect x="1632.5" y="2022.5" width="112" height="199" stroke="#A9D18E" stroke-width="4.58333" stroke-miterlimit="8" fill="#6B719D" fill-opacity="0.431373"/><text fill="#FFFFFF" font-family="Gmarket Sans TTF Medium,Gmarket Sans TTF Medium_MSFontService,sans-serif" font-weight="500" font-size="23" transform="matrix(1 0 0 1 1666.42 2113)">원캐<tspan font-size="23" x="0" y="28">스트</tspan></text><rect x="1744.5" y="2023.5" width="113" height="198" stroke="#A9D18E" stroke-width="4.58333" stroke-miterlimit="8" fill="#6B719D" fill-opacity="0.431373"/><text fill="#FFFFFF" font-family="Gmarket Sans TTF Medium,Gmarket Sans TTF Medium_MSFontService,sans-serif" font-weight="500" font-size="23" transform="matrix(1 0 0 1 1778.71 2113)">씨엔<tspan font-size="23" x="0" y="28">아이</tspan></text><rect x="1343.5" y="1954.5" width="225" height="71.9999" stroke="#A9D18E" stroke-width="4.58333" stroke-miterlimit="8" fill="#6B719D" fill-opacity="0.431373"/><text fill="#FFFFFF" font-family="Gmarket Sans TTF Medium,Gmarket Sans TTF Medium_MSFontService,sans-serif" font-weight="500" font-size="23" transform="matrix(1 0 0 1 1434.13 1982)">이룸<tspan font-size="23" x="-32.6563" y="28">에스엔에스</tspan></text><rect x="1344.5" y="2025.5" width="112" height="199" stroke="#A9D18E" stroke-width="4.58333" stroke-miterlimit="8" fill="#6B719D" fill-opacity="0.431373"/><text fill="#FFFFFF" font-family="Gmarket Sans TTF Medium,Gmarket Sans TTF Medium_MSFontService,sans-serif" font-weight="500" font-size="23" transform="matrix(1 0 0 1 1377.81 2116)">원캐<tspan font-size="23" x="0" y="28">스트</tspan></text><rect x="1456.5" y="2026.5" width="112" height="198" stroke="#A9D18E" stroke-width="4.58333" stroke-miterlimit="8" fill="#6B719D" fill-opacity="0.431373"/><text fill="#FFFFFF" font-family="Gmarket Sans TTF Medium,Gmarket Sans TTF Medium_MSFontService,sans-serif" font-weight="500" font-size="23" transform="matrix(1 0 0 1 1490.09 2116)">씨엔<tspan font-size="23" x="0" y="28">아이</tspan></text><rect x="1061.5" y="1951.5" width="225" height="72.0002" stroke="#A9D18E" stroke-width="4.58333" stroke-miterlimit="8" fill="#6B719D" fill-opacity="0.431373"/><text fill="#FFFFFF" font-family="Gmarket Sans TTF Medium,Gmarket Sans TTF Medium_MSFontService,sans-serif" font-weight="500" font-size="23" transform="matrix(1 0 0 1 1151.87 1978)">이룸<tspan font-size="23" x="-32.6563" y="28">에스엔에스</tspan></text><rect x="1060.5" y="2022.5" width="112" height="198" stroke="#A9D18E" stroke-width="4.58333" stroke-miterlimit="8" fill="#6B719D" fill-opacity="0.431373"/><text fill="#FFFFFF" font-family="Gmarket Sans TTF Medium,Gmarket Sans TTF Medium_MSFontService,sans-serif" font-weight="500" font-size="23" transform="matrix(1 0 0 1 1094.52 2113)">원캐<tspan font-size="23" x="0" y="28">스트</tspan></text><rect x="1171.5" y="2022.5" width="115" height="199" stroke="#A9D18E" stroke-width="4.58333" stroke-miterlimit="8" fill="#6B719D" fill-opacity="0.431373"/><text fill="#FFFFFF" font-family="Gmarket Sans TTF Medium,Gmarket Sans TTF Medium_MSFontService,sans-serif" font-weight="500" font-size="23" transform="matrix(1 0 0 1 1207.06 2113)">씨엔<tspan font-size="23" x="0" y="28">아이</tspan></text><path d="M4410 1112.27C4410 1109.91 4411.91 1108 4414.27 1108L5518.73 1108C5521.09 1108 5523 1109.91 5523 1112.27L5523 1458.73C5523 1461.09 5521.09 1463 5518.73 1463L4414.27 1463C4411.91 1463 4410 1461.09 4410 1458.73Z" fill="#6B719D" fill-rule="evenodd" fill-opacity="0.431373"/><text fill="#FFFFFF" font-family="Malgun Gothic,Malgun Gothic_MSFontService,sans-serif" font-weight="400" font-size="37" transform="matrix(1 0 0 1 4737.2 1299)">K<tspan font-size="37" x="21.7705" y="0">-</tspan><tspan font-size="37" x="36.6665" y="0">ICT </tspan><tspan font-size="37" x="102.552" y="0">스타트업</tspan><tspan font-size="37" x="262.396" y="0">공통</tspan><tspan font-size="37" x="348.906" y="0">홍보관</tspan></text></g></svg>