<svg width="4261" height="2025" xmlns="http://www.w3.org/2000/svg" xmlns:xlink="http://www.w3.org/1999/xlink" overflow="hidden"><defs><clipPath id="clip0"><rect x="142" y="185" width="4261" height="2025"/></clipPath></defs><g clip-path="url(#clip0)" transform="translate(-142 -185)"><rect x="1660.5" y="867.5" width="103" height="164" stroke="#FFCC66" stroke-width="4.58333" stroke-miterlimit="8" fill="#6B719D"/><text fill="#FFFFFF" font-family="Gmarket Sans TTF Medium,Gmarket Sans TTF Medium_MSFontService,sans-serif" font-weight="500" font-size="28" transform="matrix(1 0 0 1 1698.28 923)">포<tspan font-size="28" x="0" y="33">스</tspan><tspan font-size="28" x="0" y="66">텍</tspan></text><rect x="1560.5" y="774.5" width="204" height="93.0002" stroke="#FFCC66" stroke-width="4.58333" stroke-miterlimit="8" fill="#6B719D"/><text fill="#FFFFFF" font-family="Gmarket Sans TTF Medium,Gmarket Sans TTF Medium_MSFontService,sans-serif" font-weight="500" font-size="28" transform="matrix(1 0 0 1 1596.09 810)">데이타프로<tspan font-size="28" x="52.7084" y="33">텍</tspan></text><rect x="1560.5" y="867.5" width="103" height="164" stroke="#FFCC66" stroke-width="4.58333" stroke-miterlimit="8" fill="#6B719D"/><rect x="2061.5" y="1540.5" width="294" height="258" stroke="#A9D18E" stroke-width="4.58333" stroke-miterlimit="8" fill="#6B719D"/><text fill="#FFFFFF" font-family="Gmarket Sans TTF Medium,Gmarket Sans TTF Medium_MSFontService,sans-serif" font-weight="500" font-size="28" transform="matrix(1 0 0 1 2168.51 1675)">씨프로</text><rect x="2061.5" y="1924.5" width="293" height="258" stroke="#A9D18E" stroke-width="4.58333" stroke-miterlimit="8" fill="#6B719D"/><text fill="#FFFFFF" font-family="Gmarket Sans TTF Medium,Gmarket Sans TTF Medium_MSFontService,sans-serif" font-weight="500" font-size="28" transform="matrix(1 0 0 1 2167.94 2059)">카티스</text><rect x="2529.5" y="1546.5" width="289" height="258" stroke="#FF8181" stroke-width="4.58333" stroke-miterlimit="8" fill="#6B719D"/><text fill="#FFFFFF" font-family="Gmarket Sans TTF Medium,Gmarket Sans TTF Medium_MSFontService,sans-serif" font-weight="500" font-size="28" transform="matrix(1 0 0 1 2647.18 1682)">세오</text><rect x="2914.5" y="772.5" width="305" height="258" stroke="#5B9BD5" stroke-width="4.58333" stroke-miterlimit="8" fill="#6B719D"/><text fill="#FFFFFF" font-family="Gmarket Sans TTF Medium,Gmarket Sans TTF Medium_MSFontService,sans-serif" font-weight="500" font-size="28" transform="matrix(1 0 0 1 3013.74 888)">시큐리티<tspan font-size="28" x="13.1772" y="50">잡페어</tspan></text><rect x="2055.5" y="1148.5" width="300" height="174" stroke="#FFCC66" stroke-width="4.58333" stroke-miterlimit="8" fill="#6B719D"/><text fill="#FFFFFF" font-family="Gmarket Sans TTF Medium,Gmarket Sans TTF Medium_MSFontService,sans-serif" font-weight="500" font-size="28" transform="matrix(1 0 0 1 2118.56 1222)">메트로게이트<tspan font-size="28" x="158.125" y="0">/</tspan><tspan font-size="28" x="33.802" y="50">이레산업</tspan></text><rect x="2524.5" y="1148.5" width="300" height="174" stroke="#5B9BD5" stroke-width="4.58333" stroke-miterlimit="8" fill="#6B719D"/><text fill="#FFFFFF" font-family="Gmarket Sans TTF Medium,Gmarket Sans TTF Medium_MSFontService,sans-serif" font-weight="500" font-size="28" transform="matrix(1 0 0 1 2634.5 1222)">포딕스<tspan font-size="28" x="0" y="50">시스템</tspan></text><rect x="2919.5" y="1148.5" width="300" height="174" stroke="#5B9BD5" stroke-width="4.58333" stroke-miterlimit="8" fill="#6B719D"/><text fill="#FFFFFF" font-family="Gmarket Sans TTF Medium,Gmarket Sans TTF Medium_MSFontService,sans-serif" font-weight="500" font-size="28" transform="matrix(1 0 0 1 2965.38 1208)">원모어<tspan font-size="28" x="86.5105" y="0">시큐리티</tspan><tspan font-size="28" x="191.927" y="0">/</tspan><tspan font-size="28" x="3.73535" y="33">에스엔솔루션즈</tspan><tspan font-size="28" x="188.215" y="33">/</tspan><tspan font-size="28" x="11.1834" y="66">에이아이스페라</tspan></text><rect x="144.5" y="332.5" width="731" height="258" stroke="#C58BFF" stroke-width="4.58333" stroke-miterlimit="8" fill="#6B719D"/><text fill="#FFFFFF" font-family="Gmarket Sans TTF Medium,Gmarket Sans TTF Medium_MSFontService,sans-serif" font-weight="500" font-size="28" transform="matrix(1 0 0 1 411.845 468)">콘퍼런스<tspan font-size="28" x="112.865" y="0">트랙</tspan><tspan font-size="28" x="173.021" y="0">A</tspan></text><rect x="2487.5" y="332.5" width="732" height="258" stroke="#C58BFF" stroke-width="4.58333" stroke-miterlimit="8" fill="#6B719D"/><text fill="#FFFFFF" font-family="Gmarket Sans TTF Medium,Gmarket Sans TTF Medium_MSFontService,sans-serif" font-weight="500" font-size="28" transform="matrix(1 0 0 1 2755.75 468)">콘퍼런스<tspan font-size="28" x="112.865" y="0">트랙</tspan><tspan font-size="28" x="173.021" y="0">B</tspan></text><rect x="3572.5" y="332.5" width="828" height="258" stroke="#C58BFF" stroke-width="4.58333" stroke-miterlimit="8" fill="#6B719D"/><rect x="3295.5" y="332.5" width="241" height="258" stroke="#C58BFF" stroke-width="4.58333" stroke-miterlimit="8" fill="#6B719D"/><rect x="1551.5" y="332.5" width="294" height="258" stroke="#C58BFF" stroke-width="4.58333" stroke-miterlimit="8" fill="#6B719D"/><text fill="#FFFFFF" font-family="Gmarket Sans TTF Medium,Gmarket Sans TTF Medium_MSFontService,sans-serif" font-weight="500" font-size="28" transform="matrix(1 0 0 1 1658.47 468)">엠스톤</text><rect x="1217.5" y="332.5" width="242" height="258" stroke="#C58BFF" stroke-width="4.58333" stroke-miterlimit="8" fill="#6B719D"/><text fill="#FFFFFF" font-family="Gmarket Sans TTF Medium,Gmarket Sans TTF Medium_MSFontService,sans-serif" font-weight="500" font-size="28" transform="matrix(1 0 0 1 1285.19 468)">씨게이트</text><rect x="968.5" y="332.5" width="157" height="258" stroke="#C58BFF" stroke-width="4.58333" stroke-miterlimit="8" fill="#6B719D"/><text fill="#FFFFFF" font-family="Gmarket Sans TTF Medium,Gmarket Sans TTF Medium_MSFontService,sans-serif" font-weight="500" font-size="28" transform="matrix(1 0 0 1 1019.91 451)">태정<tspan font-size="28" x="-13.1771" y="33">이엔지</tspan></text><rect x="1944.5" y="332.5" width="157" height="258" stroke="#C58BFF" stroke-width="4.58333" stroke-miterlimit="8" fill="#6B719D"/><text fill="#FFFFFF" font-family="Gmarket Sans TTF Medium,Gmarket Sans TTF Medium_MSFontService,sans-serif" font-weight="500" font-size="28" transform="matrix(1 0 0 1 1995.92 468)">새눈</text><rect x="2215.5" y="332.5" width="157" height="258" stroke="#C58BFF" stroke-width="4.58333" stroke-miterlimit="8" fill="#6B719D"/><text fill="#FFFFFF" font-family="Gmarket Sans TTF Medium,Gmarket Sans TTF Medium_MSFontService,sans-serif" font-weight="500" font-size="28" transform="matrix(1 0 0 1 2267.53 435)">지오<tspan font-size="28" x="0" y="33">멕스</tspan><tspan font-size="28" x="-13.177" y="66">소프트</tspan></text><rect x="798.5" y="777.5" width="459" height="257" stroke="#FFCC66" stroke-width="4.58333" stroke-miterlimit="8" fill="#6B719D"/><text fill="#FFFFFF" font-family="Gmarket Sans TTF Medium,Gmarket Sans TTF Medium_MSFontService,sans-serif" font-weight="500" font-size="28" transform="matrix(1 0 0 1 961.475 879)">개발도상국<tspan font-size="28" x="-3.73541" y="33">공무원</tspan><tspan font-size="28" x="82.775" y="33">초청</tspan><tspan font-size="28" x="-30.0896" y="66">해외진출</tspan><tspan font-size="28" x="82.775" y="66">상담회</tspan></text><rect x="3308.5" y="772.5" width="167" height="258" stroke="#5B9BD5" stroke-width="4.58333" stroke-miterlimit="8" fill="#6B719D"/><rect x="3565.5" y="772.5" width="167" height="258" stroke="#5B9BD5" stroke-width="4.58333" stroke-miterlimit="8" fill="#6B719D"/><rect x="3821.5" y="772.5" width="167" height="258" stroke="#5B9BD5" stroke-width="4.58333" stroke-miterlimit="8" fill="#6B719D"/><rect x="4078.5" y="772.5" width="167" height="258" stroke="#5B9BD5" stroke-width="4.58333" stroke-miterlimit="8" fill="#6B719D"/><rect x="3308.5" y="1148.5" width="167" height="174" stroke="#5B9BD5" stroke-width="4.58333" stroke-miterlimit="8" fill="#6B719D"/><text fill="#FFFFFF" font-family="Gmarket Sans TTF Medium,Gmarket Sans TTF Medium_MSFontService,sans-serif" font-weight="500" font-size="28" transform="matrix(1 0 0 1 3352.14 1225)">아크로<tspan font-size="28" x="13.177" y="33">니스</tspan></text><rect x="3559.5" y="1148.5" width="167" height="174" stroke="#5B9BD5" stroke-width="4.58333" stroke-miterlimit="8" fill="#6B719D"/><rect x="3810.5" y="1148.5" width="167" height="174" stroke="#5B9BD5" stroke-width="4.58333" stroke-miterlimit="8" fill="#6B719D"/><rect x="4061.5" y="1148.5" width="167" height="174" stroke="#5B9BD5" stroke-width="4.58333" stroke-miterlimit="8" fill="#6B719D"/><rect x="297.5" y="772.5" width="193" height="258" stroke="#FFCC66" stroke-width="4.58333" stroke-miterlimit="8" fill="#6B719D"/><rect x="538.5" y="772.5" width="209" height="258" stroke="#FFCC66" stroke-width="4.58333" stroke-miterlimit="8" fill="#6B719D"/><rect x="297.5" y="1148.5" width="195" height="174" stroke="#FFCC66" stroke-width="4.58333" stroke-miterlimit="8" fill="#6B719D"/><text fill="#FFFFFF" font-family="Gmarket Sans TTF Medium,Gmarket Sans TTF Medium_MSFontService,sans-serif" font-weight="500" font-size="28" transform="matrix(1 0 0 1 368.082 1208)">로데<tspan font-size="28" x="-26.3542" y="33">슈바르츠</tspan><tspan font-size="28" x="-13.1771" y="66">코리아</tspan></text><rect x="538.5" y="1149.5" width="211" height="174" stroke="#FFCC66" stroke-width="4.58333" stroke-miterlimit="8" fill="#6B719D"/><rect x="799.5" y="1153.5" width="206" height="174" stroke="#FFCC66" stroke-width="4.58333" stroke-miterlimit="8" fill="#6B719D"/><text fill="#FFFFFF" font-family="Gmarket Sans TTF Medium,Gmarket Sans TTF Medium_MSFontService,sans-serif" font-weight="500" font-size="28" transform="matrix(1 0 0 1 848.949 1230)">에이엔티<tspan font-size="28" x="13.1771" y="33">코리아</tspan></text><rect x="1057.5" y="1154.5" width="202" height="174" stroke="#FFCC66" stroke-width="4.58333" stroke-miterlimit="8" fill="#6B719D"/><text fill="#FFFFFF" font-family="Gmarket Sans TTF Medium,Gmarket Sans TTF Medium_MSFontService,sans-serif" font-weight="500" font-size="28" transform="matrix(1 0 0 1 1118.54 1214)">이지넷<tspan font-size="28" x="13.1771" y="33">유비</tspan><tspan font-size="28" x="0" y="66">쿼터스</tspan></text><rect x="1297.5" y="1154.5" width="215" height="174" stroke="#FFCC66" stroke-width="4.58333" stroke-miterlimit="8" fill="#6B719D"/><text fill="#FFFFFF" font-family="Gmarket Sans TTF Medium,Gmarket Sans TTF Medium_MSFontService,sans-serif" font-weight="500" font-size="25" transform="matrix(1 0 0 1 1380.27 1232)">이후<tspan font-size="25" x="-48.125" y="30">커뮤니케이션</tspan></text><rect x="1560.5" y="1154.5" width="201" height="174" stroke="#FFCC66" stroke-width="4.58333" stroke-miterlimit="8" fill="#6B719D"/><text fill="#FFFFFF" font-family="Gmarket Sans TTF Medium,Gmarket Sans TTF Medium_MSFontService,sans-serif" font-weight="500" font-size="28" transform="matrix(1 0 0 1 1621.23 1247)">앤다스</text><rect x="1814.5" y="1149.5" width="198" height="174" stroke="#FFCC66" stroke-width="4.58333" stroke-miterlimit="8" fill="#6B719D"/><text fill="#FFFFFF" font-family="Gmarket Sans TTF Medium,Gmarket Sans TTF Medium_MSFontService,sans-serif" font-weight="500" font-size="23" transform="matrix(1 0 0 1 1891.28 1226)">미래<tspan font-size="23" x="-10.8854" y="42">시그널</tspan></text><rect x="2919.5" y="1546.5" width="149" height="258" stroke="#FF8181" stroke-width="4.58333" stroke-miterlimit="8" fill="#6B719D"/><text fill="#FFFFFF" font-family="Gmarket Sans TTF Medium,Gmarket Sans TTF Medium_MSFontService,sans-serif" font-weight="500" font-size="28" transform="matrix(1 0 0 1 2977.62 1599)">1:1<tspan font-size="28" x="-10.3125" y="33">비즈</tspan><tspan font-size="28" x="-10.3125" y="66">니스</tspan><tspan font-size="28" x="-10.3125" y="99">매치</tspan><tspan font-size="28" x="-23.4895" y="132">메이킹</tspan><tspan font-size="28" x="2.86475" y="165">룸</tspan></text><rect x="2528.5" y="1901.5" width="355" height="281" stroke="#FF8181" stroke-width="4.58333" stroke-miterlimit="8" fill="#6B719D"/><text fill="#FFFFFF" font-family="Gmarket Sans TTF Medium,Gmarket Sans TTF Medium_MSFontService,sans-serif" font-weight="500" font-size="28" transform="matrix(1 0 0 1 2626.28 2048)">아미노코리아</text><rect x="2969.5" y="1899.5" width="177" height="215" stroke="#FF8181" stroke-width="4.58333" stroke-miterlimit="8" fill="#6B719D"/><text fill="#FFFFFF" font-family="Gmarket Sans TTF Medium,Gmarket Sans TTF Medium_MSFontService,sans-serif" font-weight="500" font-size="28" transform="matrix(1 0 0 1 3011.01 1996)">MYUT<tspan font-size="28" x="10.8855" y="33">RON</tspan></text><rect x="1311.5" y="1541.5" width="201" height="257" stroke="#A9D18E" stroke-width="4.58333" stroke-miterlimit="8" fill="#6B719D"/><text fill="#FFFFFF" font-family="Gmarket Sans TTF Medium,Gmarket Sans TTF Medium_MSFontService,sans-serif" font-weight="500" font-size="28" transform="matrix(1 0 0 1 1345.43 1659)">엔에스게이<tspan font-size="28" x="52.7084" y="33">트</tspan></text><rect x="1811.5" y="1922.5" width="201" height="257" stroke="#A9D18E" stroke-width="4.58333" stroke-miterlimit="8" fill="#6B719D"/><text fill="#FFFFFF" font-family="Gmarket Sans TTF Medium,Gmarket Sans TTF Medium_MSFontService,sans-serif" font-weight="500" font-size="28" transform="matrix(1 0 0 1 1871.79 2057)">노비텍</text><rect x="3315.5" y="2136.5" width="900" height="71.0002" stroke="#FF8181" stroke-width="4.58333" stroke-miterlimit="8" fill="#6B719D"/><text fill="#FFFFFF" font-family="Gmarket Sans TTF Medium,Gmarket Sans TTF Medium_MSFontService,sans-serif" font-weight="500" font-size="28" transform="matrix(1 0 0 1 3708.54 2178)">휴식<tspan font-size="28" x="60.1563" y="0">공간</tspan></text><rect x="4311.5" y="772.5" width="88" height="1435" stroke="#C58BFF" stroke-width="4.58333" stroke-miterlimit="8" fill="#6B719D"/><rect x="145.5" y="612.5" width="87" height="1567" stroke="#C58BFF" stroke-width="4.58333" stroke-miterlimit="8" fill="#6B719D"/><rect x="2674" y="772" width="148" height="258" stroke="#5B9BD5" stroke-width="2.29167" stroke-miterlimit="8" fill="#6B719D"/><rect x="2201.5" y="772.5" width="148" height="258" stroke="#FFCC66" stroke-width="4.58333" stroke-miterlimit="8" fill="#6B719D"/><text fill="#FFFFFF" font-family="Gmarket Sans TTF Medium,Gmarket Sans TTF Medium_MSFontService,sans-serif" font-weight="500" font-size="28" transform="matrix(1 0 0 1 2261.64 858)">웹<tspan font-size="28" x="0" y="33">게</tspan><tspan font-size="28" x="0" y="66">이</tspan><tspan font-size="28" x="0" y="99">트</tspan></text><rect x="2056.5" y="772.5" width="148" height="258" stroke="#FFCC66" stroke-width="4.58333" stroke-miterlimit="8" fill="#6B719D"/><rect x="2524" y="772" width="149" height="258" stroke="#00B0F0" stroke-width="13.75" stroke-miterlimit="8" fill="#6B719D"/><text fill="#FFFFFF" font-family="Nanum Brush Script,Nanum Brush Script_MSFontService,sans-serif" font-weight="700" font-size="110" transform="matrix(1 0 0 1 2561.11 894)">가<tspan font-size="110" x="5.45435" y="93">시</tspan></text><rect x="3070.5" y="1546.5" width="150" height="258" stroke="#FF8181" stroke-width="4.58333" stroke-miterlimit="8" fill="#6B719D"/><text fill="#FFFFFF" font-family="Gmarket Sans TTF Medium,Gmarket Sans TTF Medium_MSFontService,sans-serif" font-weight="500" font-size="28" transform="matrix(1 0 0 1 3105.63 1649)">바이어<tspan font-size="28" x="0" y="33">온라인</tspan><tspan font-size="28" x="0" y="66">미팅룸</tspan></text><rect x="1915.5" y="863.5" width="102" height="164" stroke="#FFCC66" stroke-width="4.58333" stroke-miterlimit="8" fill="#6B719D"/><rect x="1814.5" y="772.5" width="201" height="93.0002" stroke="#FFCC66" stroke-width="4.58333" stroke-miterlimit="8" fill="#6B719D"/><text fill="#FFFFFF" font-family="Gmarket Sans TTF Medium,Gmarket Sans TTF Medium_MSFontService,sans-serif" font-weight="500" font-size="28" transform="matrix(1 0 0 1 1875.11 825)">뉴테크</text><rect x="1814.5" y="865.5" width="102" height="164" stroke="#FFCC66" stroke-width="4.58333" stroke-miterlimit="8" fill="#6B719D"/><rect x="3027.5" y="200.5" width="438" height="85.9999" stroke="#FFFFFF" stroke-width="4.58333" stroke-miterlimit="8" fill="#6B719D"/><text fill="#FFFFFF" font-family="Gmarket Sans TTF Medium,Gmarket Sans TTF Medium_MSFontService,sans-serif" font-weight="500" font-size="32" transform="matrix(1 0 0 1 3199.29 251)">하역장</text><rect x="1305.5" y="187.5" width="438" height="86.0003" stroke="#FFFFFF" stroke-width="4.58333" stroke-miterlimit="8" fill="#6B719D"/><text fill="#FFFFFF" font-family="Gmarket Sans TTF Medium,Gmarket Sans TTF Medium_MSFontService,sans-serif" font-weight="500" font-size="32" transform="matrix(1 0 0 1 1477.58 238)">하역장</text><rect x="144.5" y="200.5" width="260" height="85.9999" stroke="#FFFFFF" stroke-width="4.58333" stroke-miterlimit="8" fill="#6B719D"/><text fill="#FFFFFF" font-family="Gmarket Sans TTF Medium,Gmarket Sans TTF Medium_MSFontService,sans-serif" font-weight="500" font-size="32" transform="matrix(1 0 0 1 227.683 251)">하역장</text><rect x="1402.5" y="870.5" width="109" height="164" stroke="#FFCC66" stroke-width="4.58333" stroke-miterlimit="8" fill="#6B719D"/><rect x="1295.5" y="776.5" width="217" height="92.9998" stroke="#FFCC66" stroke-width="4.58333" stroke-miterlimit="8" fill="#6B719D"/><text fill="#FFFFFF" font-family="Gmarket Sans TTF Medium,Gmarket Sans TTF Medium_MSFontService,sans-serif" font-weight="500" font-size="23" transform="matrix(1 0 0 1 1349.33 814)">Network<tspan font-size="23" x="24.3605" y="28">Opix</tspan></text><rect x="1295.5" y="869.5" width="109" height="164" stroke="#FFCC66" stroke-width="4.58333" stroke-miterlimit="8" fill="#6B719D"/><rect x="3313.5" y="1546.5" width="170" height="89" stroke="#FF8181" stroke-width="4.58333" stroke-miterlimit="8" fill="#6B719D"/><text fill="#FFFFFF" font-family="Gmarket Sans TTF Medium,Gmarket Sans TTF Medium_MSFontService,sans-serif" font-weight="500" font-size="28" transform="matrix(1 0 0 1 3371.7 1581)">스페<tspan font-size="28" x="0" y="33">로우</tspan></text><rect x="3313.5" y="1637.5" width="170" height="89" stroke="#FF8181" stroke-width="4.58333" stroke-miterlimit="8" fill="#6B719D"/><text fill="#FFFFFF" font-family="Gmarket Sans TTF Medium,Gmarket Sans TTF Medium_MSFontService,sans-serif" font-weight="500" font-size="28" transform="matrix(1 0 0 1 3372.85 1672)">HM<tspan font-size="28" x="-14.3228" y="33">컴퍼니</tspan></text><rect x="3558.5" y="1543.5" width="170" height="89" stroke="#FF8181" stroke-width="4.58333" stroke-miterlimit="8" fill="#6B719D"/><text fill="#FFFFFF" font-family="Gmarket Sans TTF Medium,Gmarket Sans TTF Medium_MSFontService,sans-serif" font-weight="500" font-size="28" transform="matrix(1 0 0 1 3603.15 1578)">소프트<tspan font-size="28" x="0" y="33">플로우</tspan></text><rect x="3558.5" y="1634.5" width="170" height="89" stroke="#FF8181" stroke-width="4.58333" stroke-miterlimit="8" fill="#6B719D"/><text fill="#FFFFFF" font-family="Gmarket Sans TTF Medium,Gmarket Sans TTF Medium_MSFontService,sans-serif" font-weight="500" font-size="28" transform="matrix(1 0 0 1 3616.32 1669)">펜타<tspan font-size="28" x="-13.177" y="33">시큐리</tspan></text><rect x="3812.5" y="1543.5" width="170" height="89" stroke="#FF8181" stroke-width="4.58333" stroke-miterlimit="8" fill="#6B719D"/><text fill="#FFFFFF" font-family="Gmarket Sans TTF Medium,Gmarket Sans TTF Medium_MSFontService,sans-serif" font-weight="500" font-size="28" transform="matrix(1 0 0 1 3857.2 1594)">테이텀</text><rect x="3812.5" y="1634.5" width="170" height="89" stroke="#FF8181" stroke-width="4.58333" stroke-miterlimit="8" fill="#6B719D"/><text fill="#FFFFFF" font-family="Gmarket Sans TTF Medium,Gmarket Sans TTF Medium_MSFontService,sans-serif" font-weight="500" font-size="28" transform="matrix(1 0 0 1 3857.2 1669)">에스지<tspan font-size="28" x="13.1772" y="33">에이</tspan></text><rect x="4056.5" y="1543.5" width="169" height="89" stroke="#FF8181" stroke-width="4.58333" stroke-miterlimit="8" fill="#6B719D"/><text fill="#FFFFFF" font-family="Gmarket Sans TTF Medium,Gmarket Sans TTF Medium_MSFontService,sans-serif" font-weight="500" font-size="28" transform="matrix(1 0 0 1 4100.86 1578)">스마일<tspan font-size="28" x="13.1772" y="33">로그</tspan></text><rect x="4056.5" y="1634.5" width="169" height="89" stroke="#FF8181" stroke-width="4.58333" stroke-miterlimit="8" fill="#6B719D"/><text fill="#FFFFFF" font-family="Gmarket Sans TTF Medium,Gmarket Sans TTF Medium_MSFontService,sans-serif" font-weight="500" font-size="28" transform="matrix(1 0 0 1 4100.86 1685)">이스톰</text><rect x="3316.5" y="1861.5" width="83.9998" height="174" stroke="#FF8181" stroke-width="4.58333" stroke-miterlimit="8" fill="#6B719D"/><text fill="#FFFFFF" font-family="Gmarket Sans TTF Medium,Gmarket Sans TTF Medium_MSFontService,sans-serif" font-weight="500" font-size="28" transform="matrix(1 0 0 1 3344.87 1921)">옥<tspan font-size="28" x="0" y="33">타</tspan><tspan font-size="28" x="0" y="66">코</tspan></text><rect x="3402.5" y="1861.5" width="84.0002" height="174" stroke="#FF8181" stroke-width="4.58333" stroke-miterlimit="8" fill="#6B719D"/><text fill="#FFFFFF" font-family="Gmarket Sans TTF Medium,Gmarket Sans TTF Medium_MSFontService,sans-serif" font-weight="500" font-size="28" transform="matrix(1 0 0 1 3430.82 1905)">마<tspan font-size="28" x="0" y="33">이</tspan><tspan font-size="28" x="0" y="66">더</tspan><tspan font-size="28" x="0" y="99">스</tspan></text><rect x="3562.5" y="1859.5" width="85" height="174" stroke="#FF8181" stroke-width="4.58333" stroke-miterlimit="8" fill="#6B719D"/><text fill="#FFFFFF" font-family="Gmarket Sans TTF Medium,Gmarket Sans TTF Medium_MSFontService,sans-serif" font-weight="500" font-size="28" transform="matrix(1 0 0 1 3591.33 1903)">에<tspan font-size="28" x="0" y="33">어</tspan><tspan font-size="28" x="0" y="66">큐</tspan><tspan font-size="28" x="0" y="99">브</tspan></text><rect x="3648.5" y="1859.5" width="85" height="174" stroke="#FF8181" stroke-width="4.58333" stroke-miterlimit="8" fill="#6B719D"/><text fill="#FFFFFF" font-family="Gmarket Sans TTF Medium,Gmarket Sans TTF Medium_MSFontService,sans-serif" font-weight="500" font-size="28" transform="matrix(1 0 0 1 3677.28 1903)">아<tspan font-size="28" x="0" y="33">스</tspan><tspan font-size="28" x="0" y="66">트</tspan><tspan font-size="28" x="0" y="99">론</tspan></text><rect x="3808.5" y="1858.5" width="85.0002" height="174" stroke="#FF8181" stroke-width="4.58333" stroke-miterlimit="8" fill="#6B719D"/><text fill="#FFFFFF" font-family="Gmarket Sans TTF Medium,Gmarket Sans TTF Medium_MSFontService,sans-serif" font-weight="500" font-size="28" transform="matrix(1 0 0 1 3837.52 1902)">비<tspan font-size="28" x="0" y="33">전</tspan><tspan font-size="28" x="0" y="66">테</tspan><tspan font-size="28" x="0" y="99">크</tspan></text><rect x="3894.5" y="1858.5" width="85.0002" height="174" stroke="#FF8181" stroke-width="4.58333" stroke-miterlimit="8" fill="#6B719D"/><text fill="#FFFFFF" font-family="Gmarket Sans TTF Medium,Gmarket Sans TTF Medium_MSFontService,sans-serif" font-weight="500" font-size="28" transform="matrix(1 0 0 1 3923.47 1902)">이<tspan font-size="28" x="0" y="33">노</tspan><tspan font-size="28" x="0" y="66">티</tspan><tspan font-size="28" x="0" y="99">움</tspan></text><rect x="4060.5" y="1854.5" width="84.0002" height="174" stroke="#FF8181" stroke-width="4.58333" stroke-miterlimit="8" fill="#6B719D"/><text fill="#FFFFFF" font-family="Gmarket Sans TTF Medium,Gmarket Sans TTF Medium_MSFontService,sans-serif" font-weight="500" font-size="28" transform="matrix(1 0 0 1 4088.65 1898)">시<tspan font-size="28" x="0" y="33">큐</tspan><tspan font-size="28" x="0" y="66">위</tspan><tspan font-size="28" x="0" y="99">즈</tspan></text><rect x="4146.5" y="1854.5" width="84" height="174" stroke="#FF8181" stroke-width="4.58333" stroke-miterlimit="8" fill="#6B719D"/><text fill="#FFFFFF" font-family="Gmarket Sans TTF Medium,Gmarket Sans TTF Medium_MSFontService,sans-serif" font-weight="500" font-size="28" transform="matrix(1 0 0 1 4174.59 1898)">에<tspan font-size="28" x="0" y="33">스</tspan><tspan font-size="28" x="0" y="66">케</tspan><tspan font-size="28" x="0" y="99">이</tspan></text><rect x="3139.5" y="1898.5" width="92.0002" height="218" stroke="#FF8181" stroke-width="4.58333" stroke-miterlimit="8" fill="#6B719D"/><text fill="#FFFFFF" font-family="Gmarket Sans TTF Medium,Gmarket Sans TTF Medium_MSFontService,sans-serif" font-weight="500" font-size="28" transform="matrix(1 0 0 1 3171.8 1931)">미<tspan font-size="28" x="0" y="33">디</tspan><tspan font-size="28" x="0" y="66">어</tspan><tspan font-size="28" x="0" y="99">스</tspan><tspan font-size="28" x="0" y="132">탠</tspan><tspan font-size="28" x="0" y="165">드</tspan></text><rect x="2969.5" y="2115.5" width="263" height="64" stroke="#FF8181" stroke-width="4.58333" stroke-miterlimit="8" fill="#6B719D"/><text fill="#FFFFFF" font-family="Gmarket Sans TTF Medium,Gmarket Sans TTF Medium_MSFontService,sans-serif" font-weight="500" font-size="28" transform="matrix(1 0 0 1 3060.77 2153)">경찰청</text><rect x="1563.5" y="1922.5" width="201" height="71.9999" stroke="#A9D18E" stroke-width="4.58333" stroke-miterlimit="8" fill="#6B719D"/><text fill="#FFFFFF" font-family="Gmarket Sans TTF Medium,Gmarket Sans TTF Medium_MSFontService,sans-serif" font-weight="500" font-size="23" transform="matrix(1 0 0 1 1619.61 1963)">선세웨이</text><rect x="1563.5" y="1994.5" width="201" height="182" stroke="#A9D18E" stroke-width="4.58333" stroke-miterlimit="8" fill="#6B719D"/><text fill="#FFFFFF" font-family="Gmarket Sans TTF Medium,Gmarket Sans TTF Medium_MSFontService,sans-serif" font-weight="500" font-size="23" transform="matrix(1 0 0 1 1613.64 2076)">다원테크<tspan font-size="23" x="87.0833" y="0">/</tspan><tspan font-size="23" x="6.02698" y="28">세건통신</tspan></text><rect x="1312.5" y="1922.5" width="201" height="67" stroke="#A9D18E" stroke-width="4.58333" stroke-miterlimit="8" fill="#6B719D"/><text fill="#FFFFFF" font-family="Gmarket Sans TTF Medium,Gmarket Sans TTF Medium_MSFontService,sans-serif" font-weight="500" font-size="23" transform="matrix(1 0 0 1 1368.91 1961)">티피링크</text><rect x="1312.5" y="1988.5" width="201" height="183" stroke="#A9D18E" stroke-width="4.58333" stroke-miterlimit="8" fill="#6B719D"/><text fill="#FFFFFF" font-family="Gmarket Sans TTF Medium,Gmarket Sans TTF Medium_MSFontService,sans-serif" font-weight="500" font-size="23" transform="matrix(1 0 0 1 1369.09 2071)">마이스톤<tspan font-size="23" x="0" y="28">시스템즈</tspan></text><rect x="1058.5" y="1922.5" width="201" height="67" stroke="#A9D18E" stroke-width="4.58333" stroke-miterlimit="8" fill="#6B719D"/><text fill="#FFFFFF" font-family="Gmarket Sans TTF Medium,Gmarket Sans TTF Medium_MSFontService,sans-serif" font-weight="500" font-size="23" transform="matrix(1 0 0 1 1114.72 1947)">씨큐리티<tspan font-size="23" x="0" y="28">에비던스</tspan></text><rect x="1057.5" y="1988.5" width="202" height="183" stroke="#A9D18E" stroke-width="4.58333" stroke-miterlimit="8" fill="#6B719D"/><text fill="#FFFFFF" font-family="Gmarket Sans TTF Medium,Gmarket Sans TTF Medium_MSFontService,sans-serif" font-weight="500" font-size="23" transform="matrix(1 0 0 1 1114.56 2085)">티제이원</text><rect x="805.5" y="1922.5" width="196" height="67" stroke="#A9D18E" stroke-width="4.58333" stroke-miterlimit="8" fill="#6B719D"/><rect x="805.5" y="1988.5" width="196" height="183" stroke="#A9D18E" stroke-width="4.58333" stroke-miterlimit="8" fill="#6B719D"/><rect x="539.5" y="1922.5" width="206" height="66" stroke="#A9D18E" stroke-width="4.58333" stroke-miterlimit="8" fill="#6B719D"/><text fill="#FFFFFF" font-family="Gmarket Sans TTF Medium,Gmarket Sans TTF Medium_MSFontService,sans-serif" font-weight="500" font-size="23" transform="matrix(1 0 0 1 576.436 1960)">에스에스티랩</text><rect x="539.5" y="1988.5" width="206" height="182" stroke="#A9D18E" stroke-width="4.58333" stroke-miterlimit="8" fill="#6B719D"/><text fill="#FFFFFF" font-family="Gmarket Sans TTF Medium,Gmarket Sans TTF Medium_MSFontService,sans-serif" font-weight="500" font-size="23" transform="matrix(1 0 0 1 592.296 2071)">딥노이드<tspan font-size="23" x="87.0833" y="0">/</tspan><tspan font-size="23" x="-15.7667" y="28">한국공항공사</tspan></text><rect x="291.5" y="1922.5" width="201" height="66" stroke="#A9D18E" stroke-width="4.58333" stroke-miterlimit="8" fill="#6B719D"/><text fill="#FFFFFF" font-family="Gmarket Sans TTF Medium,Gmarket Sans TTF Medium_MSFontService,sans-serif" font-weight="500" font-size="23" transform="matrix(1 0 0 1 358.712 1960)">나다텔</text><rect x="291.5" y="1988.5" width="201" height="182" stroke="#A9D18E" stroke-width="4.58333" stroke-miterlimit="8" fill="#6B719D"/><text fill="#FFFFFF" font-family="Gmarket Sans TTF Medium,Gmarket Sans TTF Medium_MSFontService,sans-serif" font-weight="500" font-size="23" transform="matrix(1 0 0 1 347.918 2084)">오즈레일</text><rect x="1060.5" y="1541.5" width="200" height="68.0001" stroke="#A9D18E" stroke-width="4.58333" stroke-miterlimit="8" fill="#6B719D"/><text fill="#FFFFFF" font-family="Gmarket Sans TTF Medium,Gmarket Sans TTF Medium_MSFontService,sans-serif" font-weight="500" font-size="23" transform="matrix(1 0 0 1 1094.79 1580)">경인씨엔에스</text><rect x="1058.5" y="1609.5" width="202" height="189" stroke="#A9D18E" stroke-width="4.58333" stroke-miterlimit="8" fill="#6B719D"/><text fill="#FFFFFF" font-family="Gmarket Sans TTF Medium,Gmarket Sans TTF Medium_MSFontService,sans-serif" font-weight="500" font-size="23" transform="matrix(1 0 0 1 1126.35 1695)">베스트<tspan font-size="23" x="0" y="28">디지털</tspan></text><rect x="1560.5" y="1541.5" width="201" height="68.0001" stroke="#A9D18E" stroke-width="4.58333" stroke-miterlimit="8" fill="#6B719D"/><text fill="#FFFFFF" font-family="Gmarket Sans TTF Medium,Gmarket Sans TTF Medium_MSFontService,sans-serif" font-weight="500" font-size="23" transform="matrix(1 0 0 1 1628.11 1580)">비젼인</text><rect x="1560.5" y="1609.5" width="100" height="189" stroke="#A9D18E" stroke-width="4.58333" stroke-miterlimit="8" fill="#6B719D"/><text fill="#FFFFFF" font-family="Gmarket Sans TTF Medium,Gmarket Sans TTF Medium_MSFontService,sans-serif" font-weight="500" font-size="23" transform="matrix(1 0 0 1 1599.59 1640)">한<tspan font-size="23" x="0" y="28">국</tspan><tspan font-size="23" x="0" y="55">태</tspan><tspan font-size="23" x="0" y="83">양</tspan><tspan font-size="23" x="0" y="110">유</tspan><tspan font-size="23" x="0" y="138">전</tspan></text><rect x="1660.5" y="1609.5" width="101" height="189" stroke="#A9D18E" stroke-width="4.58333" stroke-miterlimit="8" fill="#6B719D"/><text fill="#FFFFFF" font-family="Gmarket Sans TTF Medium,Gmarket Sans TTF Medium_MSFontService,sans-serif" font-weight="500" font-size="23" transform="matrix(1 0 0 1 1700.03 1668)">신<tspan font-size="23" x="0" y="28">우</tspan><tspan font-size="23" x="0" y="55">테</tspan><tspan font-size="23" x="0" y="83">크</tspan></text><rect x="1928.5" y="1608.5" width="84.9999" height="189" stroke="#A9D18E" stroke-width="4.58333" stroke-miterlimit="8" fill="#6B719D"/><text fill="#FFFFFF" font-family="Gmarket Sans TTF Medium,Gmarket Sans TTF Medium_MSFontService,sans-serif" font-weight="500" font-size="23" transform="matrix(1 0 0 1 1959.6 1639)">실<tspan font-size="23" x="0" y="28">리</tspan><tspan font-size="23" x="0" y="55">콘</tspan><tspan font-size="23" x="0" y="83">브</tspan><tspan font-size="23" x="0" y="110">릿</tspan><tspan font-size="23" x="0" y="138">지</tspan></text><rect x="1812.5" y="1609.5" width="114" height="190" stroke="#A9D18E" stroke-width="4.58333" stroke-miterlimit="8" fill="#6B719D"/><text fill="#FFFFFF" font-family="Gmarket Sans TTF Medium,Gmarket Sans TTF Medium_MSFontService,sans-serif" font-weight="500" font-size="23" transform="matrix(1 0 0 1 1847.05 1668)">사이<tspan font-size="23" x="0" y="28">테크</tspan><tspan font-size="23" x="0" y="55">놀로</tspan><tspan font-size="23" x="0" y="83">지스</tspan></text><rect x="1811.5" y="1542.5" width="201" height="69.0001" stroke="#A9D18E" stroke-width="4.58333" stroke-miterlimit="8" fill="#6B719D"/><text fill="#FFFFFF" font-family="Gmarket Sans TTF Medium,Gmarket Sans TTF Medium_MSFontService,sans-serif" font-weight="500" font-size="23" transform="matrix(1 0 0 1 1846.64 1582)">삼마아이씨티</text><rect x="801.5" y="1541.5" width="201" height="68.0001" stroke="#A9D18E" stroke-width="4.58333" stroke-miterlimit="8" fill="#6B719D"/><text fill="#FFFFFF" font-family="Gmarket Sans TTF Medium,Gmarket Sans TTF Medium_MSFontService,sans-serif" font-weight="500" font-size="23" transform="matrix(1 0 0 1 879.679 1566)">이룸<tspan font-size="23" x="-32.6563" y="28">에스엔에스</tspan></text><rect x="801.5" y="1609.5" width="100" height="189" stroke="#A9D18E" stroke-width="4.58333" stroke-miterlimit="8" fill="#6B719D"/><text fill="#FFFFFF" font-family="Gmarket Sans TTF Medium,Gmarket Sans TTF Medium_MSFontService,sans-serif" font-weight="500" font-size="23" transform="matrix(1 0 0 1 840.281 1667)">원<tspan font-size="23" x="0" y="28">캐</tspan><tspan font-size="23" x="0" y="55">스</tspan><tspan font-size="23" x="0" y="83">트</tspan></text><rect x="901.5" y="1609.5" width="101" height="189" stroke="#A9D18E" stroke-width="4.58333" stroke-miterlimit="8" fill="#6B719D"/><text fill="#FFFFFF" font-family="Gmarket Sans TTF Medium,Gmarket Sans TTF Medium_MSFontService,sans-serif" font-weight="500" font-size="23" transform="matrix(1 0 0 1 940.518 1668)">씨<tspan font-size="23" x="0" y="28">엔</tspan><tspan font-size="23" x="0" y="55">아</tspan><tspan font-size="23" x="0" y="83">이</tspan></text><rect x="543.5" y="1543.5" width="201" height="69.0001" stroke="#A9D18E" stroke-width="4.58333" stroke-miterlimit="8" fill="#6B719D"/><text fill="#FFFFFF" font-family="Gmarket Sans TTF Medium,Gmarket Sans TTF Medium_MSFontService,sans-serif" font-weight="500" font-size="23" transform="matrix(1 0 0 1 622.03 1569)">이룸<tspan font-size="23" x="-32.6563" y="28">에스엔에스</tspan></text><rect x="544.5" y="1612.5" width="100" height="189" stroke="#A9D18E" stroke-width="4.58333" stroke-miterlimit="8" fill="#6B719D"/><text fill="#FFFFFF" font-family="Gmarket Sans TTF Medium,Gmarket Sans TTF Medium_MSFontService,sans-serif" font-weight="500" font-size="23" transform="matrix(1 0 0 1 582.632 1670)">원<tspan font-size="23" x="0" y="28">캐</tspan><tspan font-size="23" x="0" y="55">스</tspan><tspan font-size="23" x="0" y="83">트</tspan></text><rect x="644.5" y="1612.5" width="100" height="189" stroke="#A9D18E" stroke-width="4.58333" stroke-miterlimit="8" fill="#6B719D"/><text fill="#FFFFFF" font-family="Gmarket Sans TTF Medium,Gmarket Sans TTF Medium_MSFontService,sans-serif" font-weight="500" font-size="23" transform="matrix(1 0 0 1 682.869 1670)">씨<tspan font-size="23" x="0" y="28">엔</tspan><tspan font-size="23" x="0" y="55">아</tspan><tspan font-size="23" x="0" y="83">이</tspan></text><rect x="291.5" y="1540.5" width="201" height="69.0001" stroke="#A9D18E" stroke-width="4.58333" stroke-miterlimit="8" fill="#6B719D"/><text fill="#FFFFFF" font-family="Gmarket Sans TTF Medium,Gmarket Sans TTF Medium_MSFontService,sans-serif" font-weight="500" font-size="23" transform="matrix(1 0 0 1 370.056 1566)">이룸<tspan font-size="23" x="-32.6563" y="28">에스엔에스</tspan></text><rect x="291.5" y="1608.5" width="100" height="190" stroke="#A9D18E" stroke-width="4.58333" stroke-miterlimit="8" fill="#6B719D"/><text fill="#FFFFFF" font-family="Gmarket Sans TTF Medium,Gmarket Sans TTF Medium_MSFontService,sans-serif" font-weight="500" font-size="23" transform="matrix(1 0 0 1 329.742 1667)">원<tspan font-size="23" x="0" y="28">캐</tspan><tspan font-size="23" x="0" y="55">스</tspan><tspan font-size="23" x="0" y="83">트</tspan></text><rect x="390.5" y="1609.5" width="102" height="189" stroke="#A9D18E" stroke-width="4.58333" stroke-miterlimit="8" fill="#6B719D"/><text fill="#FFFFFF" font-family="Gmarket Sans TTF Medium,Gmarket Sans TTF Medium_MSFontService,sans-serif" font-weight="500" font-size="23" transform="matrix(1 0 0 1 430.207 1667)">씨<tspan font-size="23" x="0" y="28">엔</tspan><tspan font-size="23" x="0" y="55">아</tspan><tspan font-size="23" x="0" y="83">이</tspan></text><path d="M3281 740.074C3281 737.824 3282.82 736 3285.07 736L4270.93 736C4273.18 736 4275 737.824 4275 740.074L4275 1070.93C4275 1073.18 4273.18 1075 4270.93 1075L3285.07 1075C3282.82 1075 3281 1073.18 3281 1070.93Z" fill="#ADB9CA" fill-rule="evenodd" fill-opacity="0.258824"/><text fill="#FFFFFF" font-family="Malgun Gothic,Malgun Gothic_MSFontService,sans-serif" font-weight="400" font-size="37" transform="matrix(1 0 0 1 3548.4 920)">K<tspan font-size="37" x="21.7708" y="0">-</tspan><tspan font-size="37" x="36.6665" y="0">ICT </tspan><tspan font-size="37" x="102.552" y="0">스타트업</tspan><tspan font-size="37" x="262.396" y="0">공통</tspan><tspan font-size="37" x="348.906" y="0">홍보관</tspan></text></g></svg>