<svg width="3526" height="1979" xmlns="http://www.w3.org/2000/svg" xmlns:xlink="http://www.w3.org/1999/xlink" overflow="hidden"><defs><clipPath id="clip0"><rect x="454" y="231" width="3526" height="1979"/></clipPath></defs><g clip-path="url(#clip0)" transform="translate(-454 -231)"><rect x="2158.5" y="534.5" width="122" height="177" stroke="#FFFFFF" stroke-width="4.58333" stroke-miterlimit="8" fill="none"/><text fill="#FFFFFF" font-family="Gmarket Sans TTF Medium,Gmarket Sans TTF Medium_MSFontService,sans-serif" font-weight="500" font-size="32" transform="matrix(1 0 0 1 2203.49 572)">웹<tspan font-size="32" x="0" y="38">게</tspan><tspan font-size="32" x="0" y="77">이</tspan><tspan font-size="32" x="0" y="115">트</tspan></text><rect x="2037.5" y="1064.5" width="243" height="176" stroke="#FFFFFF" stroke-width="4.58333" stroke-miterlimit="8" fill="none"/><text fill="#FFFFFF" font-family="Gmarket Sans TTF Medium,Gmarket Sans TTF Medium_MSFontService,sans-serif" font-weight="500" font-size="32" transform="matrix(1 0 0 1 2112.39 1160)">씨프로</text><rect x="2037.5" y="1321.5" width="243" height="176" stroke="#FFFFFF" stroke-width="4.58333" stroke-miterlimit="8" fill="none"/><text fill="#FFFFFF" font-family="Gmarket Sans TTF Medium,Gmarket Sans TTF Medium_MSFontService,sans-serif" font-weight="500" font-size="32" transform="matrix(1 0 0 1 2112.39 1417)">카티스</text><rect x="2429.5" y="1064.5" width="243" height="176" stroke="#FFFFFF" stroke-width="4.58333" stroke-miterlimit="8" fill="none"/><text fill="#FFFFFF" font-family="Gmarket Sans TTF Medium,Gmarket Sans TTF Medium_MSFontService,sans-serif" font-weight="500" font-size="32" transform="matrix(1 0 0 1 2519.54 1160)">세오</text><rect x="2748.5" y="534.5" width="252" height="177" stroke="#FFFFFF" stroke-width="4.58333" stroke-miterlimit="8" fill="none"/><text fill="#FFFFFF" font-family="Gmarket Sans TTF Medium,Gmarket Sans TTF Medium_MSFontService,sans-serif" font-weight="500" font-size="32" transform="matrix(1 0 0 1 2812.04 608)">시큐리티<tspan font-size="32" x="15.4688" y="58">잡페어</tspan></text><rect x="2037.5" y="791.5" width="248" height="120" stroke="#FFFFFF" stroke-width="4.58333" stroke-miterlimit="8" fill="none"/><text fill="#FFFFFF" font-family="Gmarket Sans TTF Medium,Gmarket Sans TTF Medium_MSFontService,sans-serif" font-weight="500" font-size="28" transform="matrix(1 0 0 1 2074.75 839)">메트로게이트<tspan font-size="28" x="158.125" y="0">/</tspan><tspan font-size="28" x="33.802" y="50">이레산업</tspan></text><rect x="2425.5" y="791.5" width="248" height="120" stroke="#FFFFFF" stroke-width="4.58333" stroke-miterlimit="8" fill="none"/><text fill="#FFFFFF" font-family="Gmarket Sans TTF Medium,Gmarket Sans TTF Medium_MSFontService,sans-serif" font-weight="500" font-size="32" transform="matrix(1 0 0 1 2502.84 840)">포딕스<tspan font-size="32" x="0" y="38">시스템</tspan></text><rect x="2752.5" y="791.5" width="248" height="120" stroke="#FFFFFF" stroke-width="4.58333" stroke-miterlimit="8" fill="none"/><rect x="456.5" y="233.5" width="605" height="177" stroke="#FFFFFF" stroke-width="4.58333" stroke-miterlimit="8" fill="none"/><text fill="#FFFFFF" font-family="Gmarket Sans TTF Medium,Gmarket Sans TTF Medium_MSFontService,sans-serif" font-weight="500" font-size="32" transform="matrix(1 0 0 1 643.589 329)">콘퍼런스<tspan font-size="32" x="132.917" y="0">트랙</tspan><tspan font-size="32" x="203.958" y="0">A</tspan></text><rect x="2395.5" y="233.5" width="605" height="177" stroke="#FFFFFF" stroke-width="4.58333" stroke-miterlimit="8" fill="none"/><text fill="#FFFFFF" font-family="Gmarket Sans TTF Medium,Gmarket Sans TTF Medium_MSFontService,sans-serif" font-weight="500" font-size="32" transform="matrix(1 0 0 1 2582.62 329)">콘퍼런스<tspan font-size="32" x="132.917" y="0">트랙</tspan><tspan font-size="32" x="203.958" y="0">B</tspan></text><rect x="3292.5" y="233.5" width="685" height="177" stroke="#FFFFFF" stroke-width="4.58333" stroke-miterlimit="8" fill="none"/><rect x="3063.5" y="233.5" width="200" height="177" stroke="#FFFFFF" stroke-width="4.58333" stroke-miterlimit="8" fill="none"/><rect x="1620.5" y="233.5" width="243" height="177" stroke="#FFFFFF" stroke-width="4.58333" stroke-miterlimit="8" fill="none"/><text fill="#FFFFFF" font-family="Gmarket Sans TTF Medium,Gmarket Sans TTF Medium_MSFontService,sans-serif" font-weight="500" font-size="32" transform="matrix(1 0 0 1 1695.33 329)">엠스톤</text><rect x="1344.5" y="233.5" width="200" height="177" stroke="#FFFFFF" stroke-width="4.58333" stroke-miterlimit="8" fill="none"/><text fill="#FFFFFF" font-family="Gmarket Sans TTF Medium,Gmarket Sans TTF Medium_MSFontService,sans-serif" font-weight="500" font-size="32" transform="matrix(1 0 0 1 1381.94 329)">씨게이트</text><rect x="1138.5" y="233.5" width="129" height="177" stroke="#FFFFFF" stroke-width="4.58333" stroke-miterlimit="8" fill="none"/><rect x="1945.5" y="233.5" width="130" height="177" stroke="#FFFFFF" stroke-width="4.58333" stroke-miterlimit="8" fill="none"/><text fill="#FFFFFF" font-family="Gmarket Sans TTF Medium,Gmarket Sans TTF Medium_MSFontService,sans-serif" font-weight="500" font-size="32" transform="matrix(1 0 0 1 1979.09 329)">새눈</text><rect x="2170.5" y="233.5" width="130" height="177" stroke="#FFFFFF" stroke-width="4.58333" stroke-miterlimit="8" fill="none"/><text fill="#FFFFFF" font-family="Gmarket Sans TTF Medium,Gmarket Sans TTF Medium_MSFontService,sans-serif" font-weight="500" font-size="32" writing-mode="tb-rl" transform="matrix(1 2.95822e-25 -2.95822e-25 1 2247.24 273)" x="7.2" y="8.192">소프트</text><text fill="#FFFFFF" font-family="Gmarket Sans TTF Medium,Gmarket Sans TTF Medium_MSFontService,sans-serif" font-weight="500" font-size="32" writing-mode="tb-rl" transform="matrix(1 2.95822e-25 -2.95822e-25 1 2208.24 257)" x="7.2" y="8.192">지오멕스</text><rect x="1004.5" y="534.5" width="325" height="177" stroke="#FFFFFF" stroke-width="4.58333" stroke-miterlimit="8" fill="none"/><text fill="#FFFFFF" font-family="Gmarket Sans TTF Medium,Gmarket Sans TTF Medium_MSFontService,sans-serif" font-weight="500" font-size="32" transform="matrix(1 0 0 1 1089.18 592)">개발도상국<tspan font-size="32" x="-4.58337" y="38">공무원</tspan><tspan font-size="32" x="97.3959" y="38">초청</tspan><tspan font-size="32" x="-35.5209" y="77">해외진출</tspan><tspan font-size="32" x="97.3959" y="77">상담회</tspan></text><rect x="3074.5" y="534.5" width="138" height="177" stroke="#FFFFFF" stroke-width="4.58333" stroke-miterlimit="8" fill="none"/><rect x="3286.5" y="534.5" width="138" height="177" stroke="#FFFFFF" stroke-width="4.58333" stroke-miterlimit="8" fill="none"/><rect x="3498.5" y="534.5" width="139" height="177" stroke="#FFFFFF" stroke-width="4.58333" stroke-miterlimit="8" fill="none"/><rect x="3711.5" y="534.5" width="138" height="177" stroke="#FFFFFF" stroke-width="4.58333" stroke-miterlimit="8" fill="none"/><rect x="3074.5" y="791.5" width="138" height="120" stroke="#FFFFFF" stroke-width="4.58333" stroke-miterlimit="8" fill="none"/><rect x="3282.5" y="791.5" width="138" height="120" stroke="#FFFFFF" stroke-width="4.58333" stroke-miterlimit="8" fill="none"/><rect x="3489.5" y="791.5" width="138" height="120" stroke="#FFFFFF" stroke-width="4.58333" stroke-miterlimit="8" fill="none"/><rect x="3697.5" y="791.5" width="138" height="120" stroke="#FFFFFF" stroke-width="4.58333" stroke-miterlimit="8" fill="none"/><rect x="1403.5" y="534.5" width="141" height="177" stroke="#FFFFFF" stroke-width="4.58333" stroke-miterlimit="8" fill="none"/><rect x="1618.5" y="534.5" width="141" height="177" stroke="#FFFFFF" stroke-width="4.58333" stroke-miterlimit="8" fill="none"/><rect x="1822.5" y="534.5" width="141" height="177" stroke="#FFFFFF" stroke-width="4.58333" stroke-miterlimit="8" fill="none"/><rect x="582.5" y="534.5" width="141" height="177" stroke="#FFFFFF" stroke-width="4.58333" stroke-miterlimit="8" fill="none"/><rect x="782.5" y="534.5" width="141" height="177" stroke="#FFFFFF" stroke-width="4.58333" stroke-miterlimit="8" fill="none"/><rect x="582.5" y="791.5" width="141" height="120" stroke="#FFFFFF" stroke-width="4.58333" stroke-miterlimit="8" fill="none"/><rect x="782.5" y="791.5" width="141" height="120" stroke="#FFFFFF" stroke-width="4.58333" stroke-miterlimit="8" fill="none"/><rect x="982.5" y="791.5" width="141" height="120" stroke="#FFFFFF" stroke-width="4.58333" stroke-miterlimit="8" fill="none"/><rect x="1197.5" y="791.5" width="141" height="120" stroke="#FFFFFF" stroke-width="4.58333" stroke-miterlimit="8" fill="none"/><rect x="1399.5" y="791.5" width="141" height="120" stroke="#FFFFFF" stroke-width="4.58333" stroke-miterlimit="8" fill="none"/><rect x="1610.5" y="791.5" width="140" height="120" stroke="#FFFFFF" stroke-width="4.58333" stroke-miterlimit="8" fill="none"/><text fill="#FFFFFF" font-family="Gmarket Sans TTF Medium,Gmarket Sans TTF Medium_MSFontService,sans-serif" font-weight="500" font-size="23" transform="matrix(1 0 0 1 1647.3 856)">앤다스</text><rect x="1810.5" y="791.5" width="140" height="120" stroke="#FFFFFF" stroke-width="4.58333" stroke-miterlimit="8" fill="none"/><text fill="#FFFFFF" font-family="Gmarket Sans TTF Medium,Gmarket Sans TTF Medium_MSFontService,sans-serif" font-weight="500" font-size="23" transform="matrix(1 0 0 1 1858.13 840)">미래<tspan font-size="23" x="-10.8855" y="42">시그널</tspan></text><rect x="3063.5" y="1064.5" width="140" height="119" stroke="#FFFFFF" stroke-width="4.58333" stroke-miterlimit="8" fill="none"/><rect x="3282.5" y="1060.5" width="140" height="119" stroke="#FFFFFF" stroke-width="4.58333" stroke-miterlimit="8" fill="none"/><rect x="3488.5" y="1060.5" width="141" height="119" stroke="#FFFFFF" stroke-width="4.58333" stroke-miterlimit="8" fill="none"/><rect x="3695.5" y="1060.5" width="140" height="119" stroke="#FFFFFF" stroke-width="4.58333" stroke-miterlimit="8" fill="none"/><rect x="3063.5" y="1278.5" width="140" height="119" stroke="#FFFFFF" stroke-width="4.58333" stroke-miterlimit="8" fill="none"/><rect x="3279.5" y="1278.5" width="141" height="119" stroke="#FFFFFF" stroke-width="4.58333" stroke-miterlimit="8" fill="none"/><rect x="3492.5" y="1278.5" width="140" height="119" stroke="#FFFFFF" stroke-width="4.58333" stroke-miterlimit="8" fill="none"/><rect x="3695.5" y="1278.5" width="140" height="119" stroke="#FFFFFF" stroke-width="4.58333" stroke-miterlimit="8" fill="none"/><rect x="2752.5" y="1064.5" width="243" height="176" stroke="#FFFFFF" stroke-width="4.58333" stroke-miterlimit="8" fill="none"/><rect x="2415.5" y="1321.5" width="315" height="176" stroke="#FFFFFF" stroke-width="4.58333" stroke-miterlimit="8" fill="none"/><text fill="#FFFFFF" font-family="Gmarket Sans TTF Medium,Gmarket Sans TTF Medium_MSFontService,sans-serif" font-weight="500" font-size="32" transform="matrix(1 0 0 1 2480.02 1417)">아미노코리아</text><rect x="2813.5" y="1321.5" width="186" height="176" stroke="#FFFFFF" stroke-width="4.58333" stroke-miterlimit="8" fill="none"/><rect x="1821.5" y="1064.5" width="124" height="176" stroke="#FFFFFF" stroke-width="4.58333" stroke-miterlimit="8" fill="none"/><rect x="1622.5" y="1060.5" width="125" height="176" stroke="#FFFFFF" stroke-width="4.58333" stroke-miterlimit="8" fill="none"/><rect x="1416.5" y="1060.5" width="124" height="176" stroke="#FFFFFF" stroke-width="4.58333" stroke-miterlimit="8" fill="none"/><rect x="1209.5" y="1060.5" width="124" height="176" stroke="#FFFFFF" stroke-width="4.58333" stroke-miterlimit="8" fill="none"/><rect x="1001.5" y="1060.5" width="124" height="176" stroke="#FFFFFF" stroke-width="4.58333" stroke-miterlimit="8" fill="none"/><rect x="793.5" y="1060.5" width="124" height="176" stroke="#FFFFFF" stroke-width="4.58333" stroke-miterlimit="8" fill="none"/><rect x="591.5" y="1060.5" width="124" height="176" stroke="#FFFFFF" stroke-width="4.58333" stroke-miterlimit="8" fill="none"/><rect x="591.5" y="1321.5" width="124" height="176" stroke="#FFFFFF" stroke-width="4.58333" stroke-miterlimit="8" fill="none"/><rect x="801.5" y="1321.5" width="124" height="176" stroke="#FFFFFF" stroke-width="4.58333" stroke-miterlimit="8" fill="none"/><rect x="998.5" y="1321.5" width="124" height="176" stroke="#FFFFFF" stroke-width="4.58333" stroke-miterlimit="8" fill="none"/><rect x="1205.5" y="1321.5" width="125" height="176" stroke="#FFFFFF" stroke-width="4.58333" stroke-miterlimit="8" fill="none"/><rect x="1416.5" y="1321.5" width="124" height="176" stroke="#FFFFFF" stroke-width="4.58333" stroke-miterlimit="8" fill="none"/><rect x="1621.5" y="1321.5" width="125" height="176" stroke="#FFFFFF" stroke-width="4.58333" stroke-miterlimit="8" fill="none"/><rect x="1822.5" y="1321.5" width="124" height="176" stroke="#FFFFFF" stroke-width="4.58333" stroke-miterlimit="8" fill="none"/><text fill="#FFFFFF" font-family="Gmarket Sans TTF Medium,Gmarket Sans TTF Medium_MSFontService,sans-serif" font-weight="500" font-size="32" transform="matrix(1 0 0 1 1868.7 1379)">노<tspan font-size="32" x="0" y="38">비</tspan><tspan font-size="32" x="0" y="77">텍</tspan></text><rect x="591.5" y="1565.5" width="124" height="239" stroke="#FFFFFF" stroke-width="4.58333" stroke-miterlimit="8" fill="none"/><rect x="790.5" y="1572.5" width="125" height="238" stroke="#FFFFFF" stroke-width="4.58333" stroke-miterlimit="8" fill="none"/><rect x="1003.5" y="1572.5" width="124" height="238" stroke="#FFFFFF" stroke-width="4.58333" stroke-miterlimit="8" fill="none"/><rect x="1205.5" y="1572.5" width="125" height="238" stroke="#FFFFFF" stroke-width="4.58333" stroke-miterlimit="8" fill="none"/><rect x="1416.5" y="1572.5" width="124" height="238" stroke="#FFFFFF" stroke-width="4.58333" stroke-miterlimit="8" fill="none"/><rect x="1618.5" y="1572.5" width="125" height="238" stroke="#FFFFFF" stroke-width="4.58333" stroke-miterlimit="8" fill="none"/><rect x="1826.5" y="1572.5" width="124" height="238" stroke="#FFFFFF" stroke-width="4.58333" stroke-miterlimit="8" fill="none"/><text fill="#FFFFFF" font-family="Gmarket Sans TTF Medium,Gmarket Sans TTF Medium_MSFontService,sans-serif" font-weight="500" font-size="32" transform="matrix(1 0 0 1 1872.67 1622)">송<tspan font-size="32" x="0" y="38">우</tspan><tspan font-size="32" x="0" y="77">인</tspan><tspan font-size="32" x="0" y="115">포</tspan><tspan font-size="32" x="0" y="154">텍</tspan></text><rect x="591.5" y="1901.5" width="124" height="238" stroke="#FFFFFF" stroke-width="4.58333" stroke-miterlimit="8" fill="none"/><rect x="790.5" y="1901.5" width="125" height="238" stroke="#FFFFFF" stroke-width="4.58333" stroke-miterlimit="8" fill="none"/><rect x="1000.5" y="1901.5" width="124" height="238" stroke="#FFFFFF" stroke-width="4.58333" stroke-miterlimit="8" fill="none"/><rect x="1207.5" y="1901.5" width="124" height="238" stroke="#FFFFFF" stroke-width="4.58333" stroke-miterlimit="8" fill="none"/><rect x="1414.5" y="1901.5" width="124" height="238" stroke="#FFFFFF" stroke-width="4.58333" stroke-miterlimit="8" fill="none"/><rect x="1618.5" y="1901.5" width="124" height="238" stroke="#FFFFFF" stroke-width="4.58333" stroke-miterlimit="8" fill="none"/><rect x="1822.5" y="1901.5" width="125" height="238" stroke="#FFFFFF" stroke-width="4.58333" stroke-miterlimit="8" fill="none"/><text fill="#FFFFFF" font-family="Gmarket Sans TTF Medium,Gmarket Sans TTF Medium_MSFontService,sans-serif" font-weight="500" font-size="32" transform="matrix(1 0 0 1 1869.06 2008)">쿠<tspan font-size="32" x="0" y="38">도</tspan></text><rect x="2034.5" y="1565.5" width="243" height="239" stroke="#FFFFFF" stroke-width="4.58333" stroke-miterlimit="8" fill="none"/><text fill="#FFFFFF" font-family="Gmarket Sans TTF Medium,Gmarket Sans TTF Medium_MSFontService,sans-serif" font-weight="500" font-size="32" transform="matrix(1 0 0 1 2116.37 1673)">R&amp;D<tspan font-size="32" x="-7.44775" y="38">홍보관</tspan></text><rect x="2044.5" y="1908.5" width="244" height="238" stroke="#FFFFFF" stroke-width="4.58333" stroke-miterlimit="8" fill="none"/><text fill="#FFFFFF" font-family="Gmarket Sans TTF Medium,Gmarket Sans TTF Medium_MSFontService,sans-serif" font-weight="500" font-size="32" transform="matrix(1 0 0 1 2135.1 2016)">원우<tspan font-size="32" x="-15.4688" y="38">이엔지</tspan></text><rect x="2422.5" y="1901.5" width="308" height="238" stroke="#FFFFFF" stroke-width="4.58333" stroke-miterlimit="8" fill="none"/><rect x="2418.5" y="1572.5" width="124" height="238" stroke="#FFFFFF" stroke-width="4.58333" stroke-miterlimit="8" fill="none"/><rect x="2606.5" y="1572.5" width="124" height="238" stroke="#FFFFFF" stroke-width="4.58333" stroke-miterlimit="8" fill="none"/><rect x="2813.5" y="1575.5" width="182" height="238" stroke="#FFFFFF" stroke-width="4.58333" stroke-miterlimit="8" fill="none"/><rect x="2814.5" y="1939.5" width="182" height="176" stroke="#FFFFFF" stroke-width="4.58333" stroke-miterlimit="8" fill="none"/><rect x="3072.5" y="1589.5" width="131" height="119" stroke="#FFFFFF" stroke-width="4.58333" stroke-miterlimit="8" fill="none"/><rect x="3286.5" y="1592.5" width="132" height="119" stroke="#FFFFFF" stroke-width="4.58333" stroke-miterlimit="8" fill="none"/><rect x="3490.5" y="1595.5" width="131" height="120" stroke="#FFFFFF" stroke-width="4.58333" stroke-miterlimit="8" fill="none"/><rect x="3701.5" y="1590.5" width="132" height="119" stroke="#FFFFFF" stroke-width="4.58333" stroke-miterlimit="8" fill="none"/><rect x="3079.5" y="1804.5" width="132" height="119" stroke="#FFFFFF" stroke-width="4.58333" stroke-miterlimit="8" fill="none"/><rect x="3284.5" y="1804.5" width="131" height="119" stroke="#FFFFFF" stroke-width="4.58333" stroke-miterlimit="8" fill="none"/><rect x="3488.5" y="1804.5" width="132" height="119" stroke="#FFFFFF" stroke-width="4.58333" stroke-miterlimit="8" fill="none"/><rect x="3693.5" y="1804.5" width="131" height="119" stroke="#FFFFFF" stroke-width="4.58333" stroke-miterlimit="8" fill="none"/><rect x="3080.5" y="2017.5" width="132" height="119" stroke="#FFFFFF" stroke-width="4.58333" stroke-miterlimit="8" fill="none"/><rect x="3286.5" y="2017.5" width="132" height="119" stroke="#FFFFFF" stroke-width="4.58333" stroke-miterlimit="8" fill="none"/><rect x="3492.5" y="2017.5" width="131" height="119" stroke="#FFFFFF" stroke-width="4.58333" stroke-miterlimit="8" fill="none"/><rect x="3698.5" y="2017.5" width="131" height="119" stroke="#FFFFFF" stroke-width="4.58333" stroke-miterlimit="8" fill="none"/><rect x="3079.5" y="1467.5" width="745" height="49.0001" stroke="#FFFFFF" stroke-width="4.58333" stroke-miterlimit="8" fill="none"/><text fill="#FFFFFF" font-family="Gmarket Sans TTF Medium,Gmarket Sans TTF Medium_MSFontService,sans-serif" font-weight="500" font-size="32" transform="matrix(1 0 0 1 3385.38 1500)">휴식<tspan font-size="32" x="71.0418" y="0">공간</tspan></text><rect x="3904.5" y="534.5" width="64" height="1635" stroke="#FFFFFF" stroke-width="4.58333" stroke-miterlimit="8" fill="none"/><rect x="456.5" y="425.5" width="68.0001" height="1782" stroke="#FFFFFF" stroke-width="4.58333" stroke-miterlimit="8" fill="none"/><rect x="2549" y="534" width="123" height="177" stroke="#FFFFFF" stroke-width="2.29167" stroke-miterlimit="8" fill="none"/><rect x="2038.5" y="534.5" width="123" height="177" stroke="#FFFFFF" stroke-width="4.58333" stroke-miterlimit="8" fill="none"/><rect x="2425" y="534" width="123" height="177" stroke="#FFFFFF" stroke-width="10.3125" stroke-miterlimit="8" fill="#2F5597"/><text fill="#FFFFFF" font-family="Nanum Brush Script,Nanum Brush Script_MSFontService,sans-serif" font-weight="400" font-size="92" transform="matrix(1 0 0 1 2455.12 602)">가<tspan font-size="92" x="1.42065" y="77">시</tspan></text></g></svg>